<svg width="535" height="527" viewBox="0 0 535 527" fill="none" xmlns="http://www.w3.org/2000/svg">
<g id="full-lady">
<g id="mid plants">
<g id="leaf 1">
<path id="Path 11" d="M200.619 434.023C151.335 401.686 165.712 459.008 165.712 459.008C146.117 458.067 149.736 473.412 153.482 482.403H316.172C330.616 451.491 295.777 460.056 295.777 460.056C310.381 410.89 270.904 424.557 270.904 424.557C271.131 376.7 234.398 419.3 234.398 419.3C225.719 405.042 219.255 399.901 214.44 399.901C202.041 399.901 200.619 434.023 200.619 434.023Z" fill="url(#paint0_linear)"/>
</g>
<g id="leaf 2">
<path id="Path 12" d="M130.89 378.272C122.582 404.877 122.295 435.11 131.74 465.449C135.923 478.892 139.526 499.648 158.389 493.868C172.345 489.6 183.195 479.804 190.821 469.571C200.762 456.244 206.309 440.308 210.981 424.208C216.292 405.924 220.593 386.904 218.11 366.536C215.071 341.609 202.041 315.964 198.565 290.979C166.949 313.287 142.017 342.588 130.89 378.272Z" fill="url(#paint1_linear)"/>
<path id="Path 14" d="M168.271 432.355C182.85 424.634 198.195 417.864 214.272 412.025C214.558 410.861 214.836 409.688 215.105 408.514C199.171 414.169 183.944 420.735 169.449 428.204C174.247 411.191 178.709 394.052 182.808 376.768C182.884 376.642 182.917 376.497 182.909 376.342C182.976 376.07 183.043 375.798 183.111 375.527C193.279 368.194 204.373 361.851 216.401 356.555C216.191 355.546 215.955 354.538 215.72 353.519C204.432 358.398 193.91 364.15 184.222 370.784C189.929 346.216 194.946 321.386 199.247 296.313C199.525 294.713 196.427 293.384 196.149 295.004C191.663 321.153 186.41 347.04 180.384 372.636C171.125 360.251 161.865 347.855 152.598 335.469C152.059 336.216 151.52 336.972 150.99 337.729C160.519 350.483 170.056 363.228 179.584 375.983C175.241 394.246 170.502 412.365 165.375 430.328C165.241 430.405 165.106 430.473 164.971 430.541C158.978 421.434 152.977 412.316 146.984 403.209C142.051 395.701 137.531 387.99 129.812 381.977C129.56 382.86 129.324 383.742 129.097 384.625C137.068 391.24 141.849 400.328 147.051 408.233L164.239 434.343C158.524 454.139 152.32 473.742 145.662 493.15C146.622 493.693 147.657 494.11 148.776 494.401C155.797 473.936 162.303 453.247 168.271 432.355Z" fill="#0DB25A"/>
</g>
<g id="leaf 3">
<path id="Path 14_2" d="M23.7201 402.501C15.6479 403.412 7.5672 404.334 0 403.471C7.5672 432.452 20.5046 457.418 39.7215 472.626C54.0478 483.974 71.9683 489.649 91.7154 487.65C100.461 486.768 113.449 487.66 113.415 471.724C113.39 459.94 109.518 449.61 104.813 441.744C98.6682 431.492 90.1919 424.246 81.4631 417.661C71.5391 410.173 61.0089 403.354 48.4502 401.647C46.0008 401.317 43.4924 401.182 40.942 401.182C35.3276 401.182 29.5281 401.841 23.7201 402.501Z" fill="url(#paint2_linear)"/>
<path id="Path 16" d="M78.6094 452.849C76.6482 439.949 75.3856 426.613 74.8048 412.869C74.1651 412.433 73.5169 412.006 72.8688 411.579C73.357 425.177 74.527 438.378 76.3536 451.171C67.1029 444.324 57.7092 437.709 48.1723 431.366C48.1134 431.278 48.0376 431.23 47.9366 431.201C47.7935 431.104 47.642 431.007 47.4905 430.9C44.9653 421.55 43.1892 411.647 42.2044 401.191C41.5647 401.182 40.925 401.182 40.2769 401.191C41.1439 410.978 42.6674 420.318 44.8727 429.174C31.2955 420.241 17.4322 411.802 3.29948 403.897C2.39041 403.383 1.04364 405.595 1.96113 406.109C16.6999 414.353 31.1441 423.17 45.2852 432.53C36.245 437.612 27.2132 442.694 18.1814 447.777C18.5265 448.339 18.88 448.902 19.2335 449.455C28.5347 444.227 37.8274 438.999 47.1286 433.771C57.2041 440.483 67.1282 447.486 76.8923 454.77C76.9091 454.886 76.926 455.012 76.9428 455.129C70.4446 458.223 63.9464 461.317 57.4482 464.411C52.0948 466.952 46.6993 469.135 41.733 474.149C42.2128 474.498 42.6927 474.847 43.1809 475.187C48.5427 470.085 54.8052 467.942 60.4448 465.255C66.6568 462.306 72.8604 459.348 79.0723 456.39C89.8129 464.469 100.351 472.898 110.688 481.647C111.193 480.987 111.622 480.24 112.001 479.416C101.092 470.182 89.9644 461.327 78.6094 452.849Z" fill="#09B057"/>
</g>
<g id="leaf 4">
<path id="Path 16_2" d="M38.4166 265.392C39.8476 279.116 47.802 290.6 55.5291 301.163C57.5408 303.907 59.6199 306.808 60.2596 310.319C60.9078 313.83 59.5526 318.107 56.5728 319.135C51.8844 320.755 48.2397 313.956 43.4754 312.656C37.9873 311.172 32.9369 318.068 33.0968 324.567C33.2568 331.065 36.9099 336.71 40.6977 341.521C49.3087 352.462 59.5189 361.725 70.7645 368.805C75.2004 371.589 80.638 376.565 78.4243 381.802C76.5472 386.225 70.8402 385.76 67.044 383.48C63.2562 381.201 59.5441 377.709 55.2934 378.243C49.5275 378.98 46.4383 387.243 47.8861 393.713C49.3339 400.182 53.7867 405.1 58.0374 409.639C79.2576 432.103 99.535 456.564 121.757 477.679C135.267 490.521 136.243 468.446 138.701 456.205C142.093 439.319 145.485 422.423 148.869 405.527C150.039 399.726 149.618 391.211 144.467 390.764C143.507 390.677 142.556 390.949 141.613 391.22C140.645 391.492 139.677 391.773 138.692 391.666C135.805 391.346 133.903 387.748 133.852 384.402C133.81 381.055 135.09 377.913 136.176 374.809C141.512 359.552 142.405 342.278 138.692 326.4C137.085 319.543 134.45 312.646 129.56 308.321C124.678 303.995 117.094 303.122 112.557 307.942C110.94 309.659 109.754 311.997 107.784 313.122C104.173 315.178 99.6444 311.871 98.205 307.535C96.7741 303.19 97.5401 298.34 98.3986 293.801C99.9306 285.741 101.69 277.564 101.109 269.339C100.528 261.114 97.1192 252.627 90.7472 248.874C84.3669 245.11 75.0573 248.108 72.9025 255.983C73.7527 245.877 66.0003 235.945 57.1957 235.848C57.1452 235.848 57.1031 235.848 57.0526 235.848C45.1337 235.848 36.9941 251.725 38.4166 265.392Z" fill="url(#paint3_linear)"/>
<path id="Path 18" d="M115.915 349.901C114.307 379.009 115.183 408.213 118.508 437.117C106.58 395.769 92.9695 355.081 77.6921 315.217C76.4294 311.929 75.15 308.65 73.8621 305.372C74.0389 293.539 75.6971 281.9 78.8115 270.629C79.0977 269.591 77.6752 269.213 77.389 270.241C74.5439 280.532 72.9278 291.143 72.5069 301.909C66.7579 287.341 60.79 272.879 54.6117 258.534C54.1992 257.564 52.9619 258.466 53.3828 259.436C67.1535 291.405 79.8469 323.994 91.4292 357.088C80.6213 350.192 69.8134 343.296 59.0055 336.39C58.1891 335.866 57.4988 337.35 58.3153 337.874C69.6198 345.09 80.9159 352.297 92.2203 359.513C92.2456 359.533 92.2709 359.542 92.2961 359.552C103.441 391.56 113.542 424.042 122.573 456.923C105.604 436.487 87.7087 417.117 68.9211 398.921C68.2057 398.233 67.204 399.455 67.9279 400.153C87.4393 419.057 106.008 439.202 123.541 460.512C124.189 462.869 124.838 465.225 125.469 467.592C127.809 476.36 130.065 485.157 132.253 493.974L133.634 493.499C129.644 477.417 125.41 461.433 120.924 445.536C120.957 445.429 120.974 445.303 120.957 445.148C116.816 413.625 115.612 381.676 117.38 349.853C117.439 348.776 115.974 348.825 115.915 349.901Z" fill="#047B44"/>
<path id="Path 18_2" style="mix-blend-mode:multiply" d="M128.407 470.056C114.03 483.839 80.3182 464.469 53.1049 426.797C25.8916 389.116 15.4793 347.399 29.8478 333.616C44.2246 319.834 77.9361 339.203 105.149 376.885C132.363 414.557 142.775 456.273 128.407 470.056Z" fill="url(#paint4_radial)"/>
</g>
<g id="leaf 5">
<path id="Path 19" d="M116.067 478.339L119.753 478.737C116.967 446.846 101 418.039 80.7559 396.07C60.5121 374.101 36.0766 358.039 11.9019 342.2C20.252 405.391 62.7007 460.88 116.067 478.339Z" fill="url(#paint5_linear)"/>
<path id="Path 21" d="M28.0129 366.924C53.105 406.235 82.3048 441.996 114.863 473.198C124.072 482.015 133.541 490.463 143.255 498.543C144.038 499.202 143.019 500.482 142.236 499.833C107.59 470.997 76.0423 437.321 48.4839 399.678C40.9336 389.348 33.6862 378.737 26.7419 367.855C26.1695 366.953 27.4406 366.022 28.0129 366.924Z" fill="#023441"/>
</g>
</g>
<g id="lady spot">
<path id="Path 50" d="M531.412 499.755C531.412 484.702 417.349 472.51 276.644 472.51C135.94 472.51 21.8851 484.702 21.8851 499.755C21.8851 514.798 135.94 527 276.644 527C417.349 527 531.412 514.798 531.412 499.755Z" fill="#C3ECE6"/>
</g>
<g id="lady">
<path id="Path 52" d="M262.832 85.5766C262.832 85.5766 202.563 97.4097 152.118 97.9237C105.478 98.399 82.3973 98.9519 79.1734 99.0295L79.1819 99.0198C79.123 99.0295 79.0556 99.0295 79.0051 99.0392C78.8872 99.0392 78.8031 99.0392 78.7862 99.0392V99.0586C75.0321 99.3302 68.1131 98.1274 61.6064 96.9247C54.6453 95.6347 48.1471 94.3447 46.5141 94.8685C41.2533 96.5562 22.8362 103.792 23.0045 107.73C23.1644 111.639 56.0173 111.803 53.9383 112.676C51.2026 113.821 47.1791 115.916 45.4367 118.603C39.2247 128.176 42.7095 126.1 49.4097 124.034C52.5999 123.035 56.5308 122.046 60.4869 122.327C67.5154 122.831 75.3099 115.499 78.7442 111.823V112.376C90.5705 114.752 217.159 123.219 222.95 130.678C222.95 130.678 200.333 167.71 228.91 193.093C228.91 193.093 242.596 230.813 222.361 256.875C222.361 256.875 173.692 285.721 147.118 308.049C141.352 312.898 137.834 320.483 137.48 328.689C136.167 359.445 134.947 427.728 108.979 478.436L68.9211 496.127C65.9414 497.534 66.4801 502.558 69.6619 503.101C73.3655 503.741 78.9967 503.799 87.5319 502.432C97.6664 500.802 105.276 502.364 111.075 503.925C118.727 505.982 123.238 508.038 126.285 502.771C126.285 502.771 127.481 494.537 126.588 484.769C125.763 475.768 172.808 400.483 186.436 364.595C189.559 356.361 252.091 347.476 276.19 322.268C276.19 322.268 307.89 383.461 394.083 424.576C454.697 453.499 462.146 492.247 454.915 512.373C453.678 515.817 455.134 519.764 458.207 520.899C464.705 523.295 474.789 525.526 480.252 519.231C488.728 509.464 476.228 484.769 476.228 484.769C476.228 484.769 441.406 426.642 436.498 418.921C431.583 411.21 363.343 291.065 351.02 269.766C336.584 244.809 294.102 224.8 298.21 191.677C303.168 151.726 307.923 133.413 316.854 131.357C325.785 129.301 393.974 118.341 463.897 136.653C463.897 136.653 474.738 155.363 486.346 156.74C501.514 158.534 514.291 175.188 505.487 155.673C503.82 151.968 499.25 148.457 496.093 146.401C495.075 145.741 501.775 146.711 509.889 147.671C520.882 148.981 534.459 150.29 534.973 147.555C535.865 142.754 514.51 129.553 508.349 126.255C504.561 124.228 476.346 126.469 467.424 123.724C458.493 120.979 366.407 99.8054 343.192 98.4378C319.977 97.0605 285.752 86.9442 281.139 77.856L262.832 85.5766Z" fill="url(#paint6_linear)"/>
<path id="Path 53" d="M248.286 16.4208C248.362 16.353 248.421 16.2754 248.489 16.2075C248.489 16.2075 250.265 24.093 257.899 29.4373C262.916 32.929 273.833 28.9523 276.426 37.6719C280.491 51.3285 279.801 53.0453 279.801 53.0453L282.175 63.7727C290.676 60.4167 297.36 52.5215 300.07 42.6089C301.215 42.9289 302.393 43.1132 303.63 43.1132C311.745 43.1132 318.344 35.5284 318.344 26.1492C318.344 16.7991 311.745 9.19491 303.63 9.19491C300.466 9.19491 297.536 10.3491 295.137 12.3084C289.927 4.81084 281.922 0 272.941 0C262.394 0 253.202 6.60519 248.286 16.4208Z" fill="url(#paint7_linear)"/>
<path id="Path 54" d="M240.618 39.5053C239.431 46.1493 240.063 53.1425 242.857 59.1172C246.78 67.5071 254.044 73.1424 262.36 73.1424L262.773 84.5002C262.773 84.5002 251.855 120.824 258.034 122.007C266.99 123.724 286.468 83.0744 286.468 83.0744L279.868 53.3656C283.479 52.5411 286.198 48.8845 286.198 44.4811C286.198 39.4859 282.68 35.4316 278.336 35.4316C277.419 35.4316 276.544 35.645 275.727 35.9845C272.267 29.5151 262.554 32.677 257.899 29.4278C250.256 24.1029 248.488 16.198 248.488 16.198C244.558 20.2523 241.889 32.4152 240.618 39.5053Z" fill="url(#paint8_linear)"/>
<path id="Path 55" d="M286.468 83.0841C286.468 83.0841 266.998 123.734 258.042 122.007C252.504 120.94 260.652 91.8037 262.444 85.6447C261.274 85.8775 257.461 86.5952 251.704 87.5846C246.881 106.285 222.95 130.669 222.95 130.669L222.917 130.707C222.109 132.085 200.88 168.195 228.901 193.093C228.901 193.093 232.369 202.676 233.228 215.508L242.007 217.632C255.601 220.92 269.599 221.386 283.345 218.99L303.378 215.508C299.329 208.253 297.124 200.426 298.21 191.667C299.548 180.882 300.878 171.658 302.284 163.908C283.454 161.638 274.49 121.513 300.853 89.5826C293.597 87.216 290.735 85.7126 286.434 82.9192L286.468 83.0841Z" fill="url(#paint9_linear)"/>
<path id="Path 56" d="M222.361 256.876C222.361 256.876 173.692 285.721 147.118 308.049C141.352 312.899 137.834 320.483 137.48 328.689C136.167 359.445 134.947 427.728 108.979 478.436L106.244 479.639C114.686 486.234 126.588 484.77 126.588 484.77C125.764 475.769 172.808 400.483 186.436 364.596C189.559 356.361 252.091 347.477 276.19 322.268C276.19 322.268 307.89 383.461 394.083 424.576C431.212 442.297 448.367 463.693 454.444 482.238C460.892 482.413 467.491 481.957 474.006 481.045C466.254 468.116 440.656 425.459 436.498 418.921C431.582 411.21 363.343 291.066 351.02 269.766C346.424 261.822 338.983 254.383 331.113 246.856C264.793 285.809 222.361 256.876 222.361 256.876Z" fill="url(#paint10_linear)"/>
<g id="Path 58" style="mix-blend-mode:multiply" opacity="0.51">
<path d="M252.142 322.782C234.507 331.754 185.249 347.282 179.02 360.435C174.281 370.454 146.815 439.067 134.004 471.171C147.278 444.779 176.916 394.78 187.277 367.505C190.4 359.271 252.933 350.386 277.032 325.178C277.032 325.178 269.776 313.82 252.142 322.782ZM474.848 483.955C467.095 471.026 441.498 428.368 437.34 421.831C432.433 414.11 364.185 293.975 351.862 272.676C347.266 264.732 339.833 257.283 331.963 249.766C326.669 252.87 321.551 255.498 316.585 257.787C327.3 266.672 340.431 280.299 351.71 300.076C372.611 336.73 443.661 443.383 466.994 484.799C469.612 484.585 472.23 484.323 474.848 483.955Z" fill="#032847"/>
</g>
</g>
</g>
<defs>
<linearGradient id="paint0_linear" x1="206.863" y1="499.119" x2="262.486" y2="446.825" gradientUnits="userSpaceOnUse">
<stop stop-color="#003568"/>
<stop offset="1" stop-color="#007064"/>
</linearGradient>
<linearGradient id="paint1_linear" x1="127.961" y1="502.744" x2="213.805" y2="350.113" gradientUnits="userSpaceOnUse">
<stop stop-color="#36DD8B"/>
<stop offset="0.979" stop-color="#80ED9C"/>
<stop offset="1" stop-color="#80ED9C"/>
</linearGradient>
<linearGradient id="paint2_linear" x1="115.09" y1="497.666" x2="20.6349" y2="427.057" gradientUnits="userSpaceOnUse">
<stop stop-color="#36DD8B"/>
<stop offset="0.979" stop-color="#80ED9C"/>
<stop offset="1" stop-color="#80ED9C"/>
</linearGradient>
<linearGradient id="paint3_linear" x1="111.279" y1="430.007" x2="65.1661" y2="288.386" gradientUnits="userSpaceOnUse">
<stop stop-color="#00D365"/>
<stop offset="1" stop-color="#009354"/>
</linearGradient>
<radialGradient id="paint4_radial" cx="0" cy="0" r="1" gradientUnits="userSpaceOnUse" gradientTransform="translate(79.1272 401.839) scale(68.2479 78.6416)">
<stop stop-color="#005100"/>
<stop offset="0.979" stop-color="white"/>
<stop offset="1" stop-color="white"/>
</radialGradient>
<linearGradient id="paint5_linear" x1="138.982" y1="521.272" x2="22.9545" y2="392.085" gradientUnits="userSpaceOnUse">
<stop stop-color="#003568"/>
<stop offset="1" stop-color="#007064"/>
</linearGradient>
<linearGradient id="paint6_linear" x1="1280.39" y1="2668.87" x2="-1919.05" y2="-3096.71" gradientUnits="userSpaceOnUse">
<stop stop-color="#F4BD6C"/>
<stop offset="0.018" stop-color="#F4BD6C"/>
<stop offset="1" stop-color="#FFD49C"/>
</linearGradient>
<linearGradient id="paint7_linear" x1="248.286" y1="31.8854" x2="318.347" y2="31.8854" gradientUnits="userSpaceOnUse">
<stop stop-color="#003568"/>
<stop offset="1" stop-color="#007064"/>
</linearGradient>
<linearGradient id="paint8_linear" x1="240.659" y1="68.3083" x2="286.464" y2="68.3083" gradientUnits="userSpaceOnUse">
<stop stop-color="#F4BD6C"/>
<stop offset="0.018" stop-color="#F4BD6C"/>
<stop offset="1" stop-color="#FFD49C"/>
</linearGradient>
<linearGradient id="paint9_linear" x1="305.035" y1="222.834" x2="230.547" y2="104.79" gradientUnits="userSpaceOnUse">
<stop stop-color="#003568"/>
<stop offset="1" stop-color="#007064"/>
</linearGradient>
<linearGradient id="paint10_linear" x1="258.445" y1="396.041" x2="198.804" y2="277.189" gradientUnits="userSpaceOnUse">
<stop stop-color="#003568"/>
<stop offset="1" stop-color="#007064"/>
</linearGradient>
</defs>
</svg>
