<svg xmlns="http://www.w3.org/2000/svg" viewBox="0 0 446 495" width="446" height="495">
	<defs>
		<linearGradient id="grd1" gradientUnits="userSpaceOnUse" x1="265.878" y1="291.039" x2="54.887" y2="80.048">
			<stop offset="0" stop-color="#002d40"/>
			<stop offset="1" stop-color="#006665"/>
		</linearGradient>
		<linearGradient id="grd2" gradientUnits="userSpaceOnUse" x1="388.405" y1="271.847" x2="339.117" y2="218.452">
			<stop offset="0" stop-color="#003568"/>
			<stop offset="1" stop-color="#007064"/>
		</linearGradient>
		<linearGradient id="grd3" gradientUnits="userSpaceOnUse" x1="169.505" y1="250.133" x2="286.346" y2="139.774">
			<stop offset="0" stop-color="#003568"/>
			<stop offset="1" stop-color="#007064"/>
		</linearGradient>
		<linearGradient id="grd4" gradientUnits="userSpaceOnUse" x1="254.805" y1="244.658" x2="336.133" y2="152.915">
			<stop offset="0" stop-color="#00d365"/>
			<stop offset="1" stop-color="#009354"/>
		</linearGradient>
		<radialGradient id="grd5" gradientUnits="userSpaceOnUse" cx="162.945" cy="173.94" r="78.341">
			<stop offset="0" stop-color="#005100"/>
			<stop offset="0.979" stop-color="#ffffff"/>
			<stop offset="1" stop-color="#ffffff"/>
		</radialGradient>
		<linearGradient id="grd6" gradientUnits="userSpaceOnUse" x1="149.06" y1="144.409" x2="131.684" y2="120.327">
			<stop offset="0" stop-color="#36bc8b"/>
			<stop offset="0.979" stop-color="#80ed9c"/>
			<stop offset="1" stop-color="#80ed9c"/>
		</linearGradient>
		<linearGradient id="grd7" gradientUnits="userSpaceOnUse" x1="141.675" y1="308.136" x2="178" y2="99.73">
			<stop offset="0" stop-color="#36bc8b"/>
			<stop offset="0.979" stop-color="#80ed9c"/>
			<stop offset="1" stop-color="#80ed9c"/>
		</linearGradient>
		<radialGradient id="grd8" gradientUnits="userSpaceOnUse" cx="96.881" cy="148.773" r="90.889">
			<stop offset="0" stop-color="#005100"/>
			<stop offset="0.979" stop-color="#ffffff"/>
			<stop offset="1" stop-color="#ffffff"/>
		</radialGradient>
		<linearGradient id="grd9" gradientUnits="userSpaceOnUse" x1="11.626" y1="243.143" x2="79.347" y2="87.32">
			<stop offset="0" stop-color="#00d365"/>
			<stop offset="1" stop-color="#009354"/>
		</linearGradient>
		<linearGradient id="grd10" gradientUnits="userSpaceOnUse" x1="265.878" y1="465.446" x2="54.887" y2="254.455">
			<stop offset="0" stop-color="#002d40"/>
			<stop offset="1" stop-color="#006665"/>
		</linearGradient>
		<linearGradient id="grd11" gradientUnits="userSpaceOnUse" x1="388.405" y1="334.446" x2="339.117" y2="281.051">
			<stop offset="0" stop-color="#003568"/>
			<stop offset="1" stop-color="#007064"/>
		</linearGradient>
		<linearGradient id="grd12" gradientUnits="userSpaceOnUse" x1="169.505" y1="375.947" x2="286.346" y2="265.588">
			<stop offset="0" stop-color="#003568"/>
			<stop offset="1" stop-color="#007064"/>
		</linearGradient>
		<linearGradient id="grd13" gradientUnits="userSpaceOnUse" x1="254.805" y1="346.034" x2="336.133" y2="254.291">
			<stop offset="0" stop-color="#00d365"/>
			<stop offset="1" stop-color="#009354"/>
		</linearGradient>
		<radialGradient id="grd14" gradientUnits="userSpaceOnUse" cx="162.945" cy="320.166" r="78.341">
			<stop offset="0" stop-color="#005100"/>
			<stop offset="0.979" stop-color="#ffffff"/>
			<stop offset="1" stop-color="#ffffff"/>
		</radialGradient>
		<linearGradient id="grd15" gradientUnits="userSpaceOnUse" x1="149.06" y1="317.869" x2="131.684" y2="293.787">
			<stop offset="0" stop-color="#36bc8b"/>
			<stop offset="0.979" stop-color="#80ed9c"/>
			<stop offset="1" stop-color="#80ed9c"/>
		</linearGradient>
		<linearGradient id="grd16" gradientUnits="userSpaceOnUse" x1="141.675" y1="462.678" x2="178" y2="254.272">
			<stop offset="0" stop-color="#36bc8b"/>
			<stop offset="0.979" stop-color="#80ed9c"/>
			<stop offset="1" stop-color="#80ed9c"/>
		</linearGradient>
		<radialGradient id="grd17" gradientUnits="userSpaceOnUse" cx="96.881" cy="345.334" r="90.889">
			<stop offset="0" stop-color="#005100"/>
			<stop offset="0.979" stop-color="#ffffff"/>
			<stop offset="1" stop-color="#ffffff"/>
		</radialGradient>
		<linearGradient id="grd18" gradientUnits="userSpaceOnUse" x1="11.626" y1="489.53" x2="79.347" y2="333.707">
			<stop offset="0" stop-color="#00d365"/>
			<stop offset="1" stop-color="#009354"/>
		</linearGradient>
	</defs>
	<style>
		tspan { white-space:pre }
		.shpp0 { fill: url(#grd1) } 
		.shpp1 { fill: url(#grd2) } 
		.shpp2 { fill: #03323d } 
		.shpp3 { fill: url(#grd3) } 
		.shpp4 { fill: url(#grd4) } 
		.shpp5 { fill: #066339 } 
		.shpp6 { mix-blend-mode: multiply;fill: url(#grd5) } 
		.shpp7 { fill: url(#grd6) } 
		.shpp8 { fill: url(#grd7) } 
		.shpp9 { mix-blend-mode: multiply;fill: url(#grd8) } 
		.shpp10 { fill: url(#grd9) } 
		.shpp11 { fill: url(#grd10) } 
		.shpp12 { fill: url(#grd11) } 
		.shpp13 { fill: url(#grd12) } 
		.shpp14 { fill: url(#grd13) } 
		.shpp15 { mix-blend-mode: multiply;fill: url(#grd14) } 
		.shpp16 { fill: url(#grd15) } 
		.shpp17 { fill: url(#grd16) } 
		.shpp18 { mix-blend-mode: multiply;fill: url(#grd17) } 
		.shpp19 { fill: url(#grd18) } 
	</style>
	<g id="-e- left-plants">
		<g id="-e- left-plants">
			<path id="Path 7 copy" class="shpp0" d="M0 247.69L434.79 247.69C387.09 192.32 298.21 125.83 142.07 116.72C72.29 112.65 27.75 95.35 0 72.01L0 247.69Z"/>
			<path id="Path 30 copy" class="shpp1" d="M363.24 201.76C363.24 201.76 327.23 162.35 327.45 206.63C327.45 206.63 288.76 193.98 303.07 239.47C303.07 239.47 280.45 234.22 279.66 247.69L445.41 247.69C445 242.34 441.41 238.01 430.56 238.5C430.56 238.5 444.65 185.46 396.34 215.39C396.34 215.39 394.95 183.81 382.79 183.82C378.08 183.82 371.74 188.57 363.24 201.76Z"/>
			<path id="Path 32 copy" class="shpp2" d="M155.69 156.83C143.53 137.32 135.54 115.42 145.79 80.65C158.02 114.57 156.73 145.4 156.22 154.63C159.69 140.38 164.5 126.37 170.54 112.91C168.25 107.09 159.14 78.06 175.44 50.18C179.59 69.58 178.35 88.88 173.11 107.36C179.27 94.52 186.55 82.23 194.81 70.77C192.98 65.32 186.64 40.89 204.44 16.29C206.08 33.38 203.33 51.41 197 67.77C203.94 58.46 211.53 49.72 219.66 41.69C217.71 28.49 214.11 16.49 229.23 1.28C234.79 17.36 225.41 33.64 221.5 39.91C225.71 35.84 230.07 31.96 234.55 28.28C235.92 23.97 246.48 0.3 273.04 0.2C268.12 6.8 263.31 13.54 257.36 18.97C251.91 23.92 243.44 28.06 236.27 28.89C231.72 32.63 227.29 36.58 223.01 40.72C238.38 34.91 250.35 39.66 255.7 45.79C242.37 57.25 225 43.86 222.19 41.53C214.14 49.41 206.62 57.98 199.74 67.11C213.5 57.83 229.73 57.09 244.81 57.36C231.58 67.46 214.39 71.73 198.83 68.33C188.93 81.65 180.38 96.14 173.43 111.37C187.74 94.34 213.08 85.93 231.8 90.27C216.98 106 194.36 109.9 175.59 112.9C174.71 112.75 173.82 112.61 172.94 112.46C166.97 125.71 162.22 139.51 158.76 153.52C166.08 145.12 198.92 116.72 219.67 121.46C208.24 142.78 179.17 149.89 158.4 155C156.38 163.45 154.81 171.97 153.75 180.5C153.75 180.51 153.75 180.51 153.75 180.51C153.65 181.24 153.06 181.77 152.42 181.71C151.78 181.64 151.34 181 151.43 180.27C152.45 172.43 153.87 164.6 155.69 156.83Z"/>
			<path id="Path 32 copy 2" class="shpp3" d="M189.75 163.42C170.58 182.75 157.44 209.58 153.46 241.7C153.26 243.3 153.02 244.97 152.77 246.69L246.38 246.69C259.02 233.33 270.98 218.76 277.23 199.47C284.96 175.6 283.55 145.75 290.9 121.6C251.51 124.64 215.46 137.51 189.75 163.42Z"/>
			<path id="Path 34 copy" class="shpp2" d="M202.09 232.64C219.16 233.53 236.56 235.67 254.24 239.03C255.01 238.14 255.77 237.24 256.52 236.34C239.05 232.89 221.86 230.63 204.97 229.57C216.75 216.94 228.26 204.01 239.49 190.77C239.61 190.7 239.71 190.6 239.77 190.45C239.95 190.24 240.12 190.03 240.3 189.83C253.04 188.7 266.23 188.96 279.86 190.66C280.09 189.64 280.3 188.61 280.5 187.57C267.76 185.9 255.36 185.43 243.37 186.19C259.23 167.3 274.54 147.81 289.27 127.72C290.22 126.44 287.85 123.6 286.9 124.9C271.53 145.85 255.54 166.15 238.96 185.8C235.47 169.8 231.99 153.79 228.5 137.79C227.67 138.17 226.84 138.56 226.01 138.95C229.6 155.42 233.19 171.89 236.78 188.35C224.89 202.34 212.7 215.99 200.21 229.29C200.06 229.28 199.9 229.27 199.74 229.27C197.95 217.93 196.15 206.6 194.36 195.27C192.89 185.94 191.89 176.65 187.15 167.16C186.55 167.81 185.95 168.47 185.35 169.14C190.08 179.29 190.74 189.96 192.29 199.79C194 210.62 195.72 221.44 197.43 232.27C183.6 246.89 169.39 261.08 154.84 274.85C155.51 275.85 156.32 276.78 157.25 277.64C172.6 263.11 187.55 248.11 202.09 232.64Z"/>
			<path id="Path 36 copy" class="shpp4" d="M261.25 183.76C248.59 199.42 240.84 220.06 240.14 243.82C240.1 245.05 240.04 246.35 239.97 247.69L302.02 247.69C304.08 245.28 306.06 242.8 308 240.3C316.41 229.41 324.28 217.71 327.55 202.97C331.56 184.92 328.48 163.26 332.19 145.04C303.66 150.45 278.23 162.77 261.25 183.76Z"/>
			<path id="Path 38 copy" class="shpp5" d="M274.94 232.54C287.45 231.8 300.29 231.95 313.42 232.97C313.92 232.26 314.42 231.54 314.9 230.81C301.92 229.72 289.22 229.47 276.82 230.06C284.55 219.89 292.06 209.52 299.35 198.95C299.44 198.89 299.5 198.81 299.53 198.69C299.65 198.53 299.76 198.36 299.88 198.19C309.09 196.34 318.74 195.46 328.8 195.59C328.9 194.83 328.98 194.06 329.06 193.29C319.64 193.11 310.57 193.77 301.87 195.29C312.14 180.22 321.98 164.76 331.35 148.91C331.95 147.89 330.03 146.02 329.43 147.04C319.65 163.57 309.38 179.69 298.62 195.36C294.98 183.97 291.34 172.58 287.7 161.19C287.12 161.53 286.54 161.88 285.96 162.24C289.71 173.96 293.46 185.69 297.2 197.41C289.49 208.58 281.54 219.52 273.34 230.24C273.22 230.25 273.1 230.26 272.99 230.27C270.9 222.14 268.82 214.02 266.73 205.89C265.01 199.21 263.65 192.51 259.54 185.97C259.15 186.49 258.75 187.03 258.37 187.56C262.51 194.59 263.72 202.31 265.53 209.36C267.52 217.12 269.52 224.88 271.51 232.64C262.42 244.43 253.03 255.94 243.35 267.17C243.91 267.84 244.56 268.45 245.3 269.01C255.5 257.16 265.39 245 274.94 232.54Z"/>
			<path id="Path 40 copy" class="shpp6" d="M93.08 234.71C113.35 262.3 161.07 257.45 199.66 223.88C238.25 190.31 253.09 140.75 232.81 113.16C212.54 85.58 164.82 90.44 126.23 124C87.65 157.57 72.8 207.13 93.08 234.71Z"/>
			<path id="Path 41 copy" class="shpp7" d="M205.3 76.21C204.58 82.45 202.3 88.48 203.35 95.31C200.57 90.55 198.61 85.24 197.55 79.73C184.19 86.22 171.05 93.25 158.15 100.79C156.97 106.54 156.19 111.97 157.98 118.71C156.99 118.62 151.66 114.53 149.29 106.08C141 111.12 132.82 116.36 124.76 121.82C117.39 126.82 110.01 132.15 102.98 137.94C103.1 139.34 106 150.46 114.39 159.51C114.39 159.51 99.34 154.36 93.97 145.86C81.22 157.84 70.45 171.76 64.31 188.61C68.76 192.23 73.03 197.96 77.19 199.76C72.09 200.62 61.29 200.14 61.05 200.09C57.84 215.57 58.54 232.97 62.98 247.69L64.79 247.69C85.28 211.43 113.46 180.59 142.8 152.18C162.13 133.45 182.62 115.22 206.82 105.22C217.43 100.84 254.39 92.99 266.55 91.87C257.81 87.7 249.08 83.52 240.34 79.34C234.01 76.31 227.48 73.24 220.57 72.97C220.24 72.96 219.92 72.95 219.6 72.95C214.7 72.95 209.93 74.33 205.3 76.21Z"/>
			<path id="Path 42 copy" class="shpp8" d="M206.82 105.22C182.62 115.22 162.13 133.45 142.8 152.18C113.46 180.59 85.28 211.43 64.79 247.69L98.18 247.69C98.75 244.77 99.4 241.87 100.27 239.04L100.27 239.04C101 241.81 102.18 244.72 103.46 247.69L128.28 247.69C130.33 245.51 132.26 243.17 134.2 240.87C138.16 236.17 142.24 231.56 146.42 227.07C134.57 218.29 129.81 201.67 130.81 196.78C130.41 198.75 149.51 215.15 156.72 216.47C170.44 202.91 185.19 190.62 200.95 180.04C198.78 177.06 185.35 165.06 184.55 146.52C189.16 152.52 193.82 158.59 199.34 163.66C203.44 167.43 208.58 169.36 213.09 172.15C216.99 169.55 220.76 166.75 224.07 163.33C231.51 155.63 235.95 145.57 240.16 135.27C237.91 133.54 235.72 131.63 234.35 130.53C232.17 128.78 229.98 127.01 228.2 124.78C225.46 121.33 223.89 116.98 222.74 112.6C223.31 114.68 236.61 121.32 238.92 122.88C240.77 124.13 242.39 125.16 243.76 126.43C245.46 122.36 247.24 118.34 249.28 114.52C253.81 105.98 259.7 98.29 266.59 91.89L266.55 91.87C254.39 92.99 217.43 100.84 206.82 105.22Z"/>
			<path id="Path 44 copy" class="shpp2" d="M55.41 264.19C74.02 225.19 101.54 192.44 131 162.8C156.09 137.56 183.37 110.34 217.39 101.08C232.34 97.02 247.62 93.66 262.91 91.55C263.8 91.42 263.94 92.92 263.06 93.04C249.57 94.9 236.14 97.85 222.9 101.18C217.59 102.52 212.18 103.85 207.06 105.93C198.25 109.51 189.87 114.34 181.93 119.81C166.12 130.68 151.95 144.14 138.12 157.75C123.15 172.48 108.65 187.82 95.35 204.35C80.45 222.88 67.11 242.93 56.67 264.81C56.26 265.67 55 265.06 55.41 264.19Z"/>
			<path id="Path 46 copy" class="shpp9" d="M49.65 237.76C19.96 219.11 17.04 164.16 43.13 115.01C69.21 65.87 114.42 41.14 144.11 59.79C173.8 78.43 176.72 133.39 150.64 182.53C124.55 231.68 79.34 256.4 49.65 237.76Z"/>
			<path id="Path 47 copy" class="shpp10" d="M68.07 14.52C60.66 27.21 60.49 43.18 60.7 58.21C60.75 62.11 60.77 66.2 59.13 69.66C57.48 73.13 53.56 75.66 50.25 74.16C45.04 71.81 46.1 63.19 42.67 58.32C38.72 52.71 29.85 54.52 25.88 60.12C21.91 65.71 21.59 73.35 21.93 80.41C22.68 96.46 25.93 112.35 31.48 127.23C33.67 133.1 35.37 141.6 30.09 144.25C25.61 146.49 20.81 141.57 18.88 136.64C16.94 131.72 15.84 125.83 11.71 122.91C8.12 120.38 3.56 121.32 0 124.05L0 200.94C1.75 216.6 3.61 232.24 6.07 247.69L45.1 247.69C56.03 238.5 66.97 229.3 77.9 220.11C82.61 216.15 87.63 208.64 83.32 204.17C81.69 202.49 79.2 202.08 77.6 200.36C75.22 197.8 75.8 193.26 77.88 190.41C79.95 187.55 83.09 185.92 86.02 184.17C100.43 175.56 112.16 161.73 118.89 145.4C121.8 138.36 123.81 130.46 122.19 122.95C120.57 115.43 114.36 108.69 107.27 109.14C104.74 109.3 102.2 110.33 99.73 109.72C95.21 108.58 93.26 102.21 94.73 97.41C96.19 92.62 99.95 89.15 103.59 86.01C110.05 80.43 116.8 74.95 121.49 67.57C126.18 60.18 128.5 50.33 125.19 42.11C121.88 33.89 111.69 29.02 104.78 33.94C111.93 26.12 111.3 11.6 103.51 4.54C100.06 1.41 95.88 0.03 91.57 0.03C82.62 0.03 73.07 5.96 68.07 14.52Z"/>
			<path id="Path 49 copy" class="shpp5" d="M83.71 147.13C63.86 170.36 46.15 195.64 30.83 222.61C46.35 178.35 59.97 133.29 71.56 87.61C72.52 83.84 73.46 80.07 74.39 76.29C82.02 66.46 90.87 57.99 100.78 50.96C101.69 50.32 100.67 48.87 99.76 49.51C90.71 55.92 82.55 63.57 75.37 72.3C79.46 55.47 83.29 38.57 86.86 21.59C87.1 20.45 85.43 20.22 85.19 21.37C77.24 59.21 67.93 96.71 57.32 133.77C52.05 119.38 46.78 105 41.5 90.62C41.1 89.53 39.55 90.23 39.95 91.32C45.47 106.36 50.98 121.39 56.49 136.43C56.5 136.46 56.52 136.5 56.54 136.53C46.22 172.31 34.68 207.66 21.92 242.51C19.72 211.85 16.01 181.35 10.77 151.13C10.57 149.98 8.91 150.22 9.11 151.38C14.55 182.77 18.36 214.46 20.52 246.31C19.6 248.8 18.69 251.31 17.75 253.8C14.29 263.03 10.74 272.23 7.11 281.39L8.65 282.08C15.26 265.38 21.6 248.56 27.66 231.62C27.76 231.55 27.85 231.46 27.93 231.32C44.19 201.49 63.33 173.65 85.04 148.25C85.78 147.39 84.44 146.27 83.71 147.13Z"/>
		</g>
		<g id="-e- left-plants copy">
			<path id="Path 7 copy 2" class="shpp11" d="M0 246.41L434.79 246.41C387.09 301.79 298.21 368.28 142.07 377.39C72.29 381.46 27.75 398.76 0 422.1L0 246.41Z"/>
			<path id="Path 30 copy 2" class="shpp12" d="M363.24 292.34C363.24 292.34 327.23 331.76 327.45 287.48C327.45 287.48 288.76 300.13 303.07 254.63C303.07 254.63 280.45 259.89 279.66 246.41L445.41 246.41C445 251.77 441.41 256.09 430.56 255.6C430.56 255.6 444.65 308.64 396.34 278.72C396.34 278.72 394.95 310.29 382.79 310.29C378.08 310.29 371.74 305.54 363.24 292.34Z"/>
			<path id="Path 32 copy 3" class="shpp2" d="M155.69 337.27C143.53 356.79 135.54 378.69 145.79 413.45C158.02 379.54 156.73 348.7 156.22 339.48C159.69 353.72 164.5 367.74 170.54 381.2C168.25 387.01 159.14 416.04 175.44 443.92C179.59 424.52 178.35 405.23 173.11 386.74C179.27 399.59 186.55 411.88 194.81 423.34C192.98 428.79 186.64 453.22 204.44 477.82C206.08 460.73 203.33 442.69 197 426.34C203.94 435.65 211.53 444.39 219.66 452.41C217.71 465.62 214.11 477.61 229.23 492.83C234.79 476.75 225.41 460.47 221.5 454.2C225.71 458.27 230.07 462.15 234.55 465.83C235.92 470.14 246.48 493.8 273.04 493.91C268.12 487.31 263.31 480.57 257.36 475.13C251.91 470.18 243.44 466.05 236.27 465.21C231.72 461.48 227.29 457.53 223.01 453.38C238.38 459.2 250.35 454.45 255.7 448.32C242.37 436.86 225 450.25 222.19 452.58C214.14 444.7 206.62 436.13 199.74 426.99C213.5 436.27 229.73 437.02 244.81 436.74C231.58 426.64 214.39 422.38 198.83 425.77C188.93 412.46 180.38 397.96 173.43 382.74C187.74 399.76 213.08 408.18 231.8 403.83C216.98 388.1 194.36 384.2 175.59 381.21C174.71 381.35 173.82 381.5 172.94 381.64C166.97 368.39 162.22 354.6 158.76 340.58C166.08 348.99 198.92 377.39 219.67 372.64C208.24 351.33 179.17 344.22 158.4 339.1C156.38 330.65 154.81 322.13 153.75 313.6C153.75 313.6 153.75 313.6 153.75 313.59C153.65 312.87 153.06 312.33 152.42 312.4C151.78 312.46 151.34 313.1 151.43 313.83C152.45 321.68 153.87 329.51 155.69 337.27Z"/>
			<path id="Path 32 copy 4" class="shpp13" d="M189.75 330.68C170.58 311.36 157.44 284.53 153.46 252.41C153.26 250.81 153.02 249.14 152.77 247.41L246.38 247.41C259.02 260.78 270.98 275.35 277.23 294.64C284.96 318.51 283.55 348.35 290.9 372.51C251.51 369.46 215.46 356.6 189.75 330.68Z"/>
			<path id="Path 34 copy 2" class="shpp2" d="M202.09 261.46C219.16 260.58 236.56 258.44 254.24 255.07C255.01 255.96 255.77 256.86 256.52 257.77C239.05 261.22 221.86 263.47 204.97 264.54C216.75 277.16 228.26 290.09 239.49 303.33C239.61 303.4 239.71 303.51 239.77 303.66C239.95 303.86 240.12 304.07 240.3 304.28C253.04 305.4 266.23 305.15 279.86 303.45C280.09 304.47 280.3 305.5 280.5 306.53C267.76 308.2 255.36 308.68 243.37 307.92C259.23 326.8 274.54 346.29 289.27 366.38C290.22 367.67 287.85 370.5 286.9 369.2C271.53 348.25 255.54 327.95 238.96 308.31C235.47 324.31 231.99 340.31 228.5 356.31C227.67 355.93 226.84 355.54 226.01 355.15C229.6 338.69 233.19 322.22 236.78 305.75C224.89 291.76 212.7 278.12 200.21 264.81C200.06 264.82 199.9 264.83 199.74 264.84C197.95 276.17 196.15 287.51 194.36 298.84C192.89 308.16 191.89 317.46 187.15 326.94C186.55 326.29 185.95 325.63 185.35 324.96C190.08 314.81 190.74 304.15 192.29 294.31C194 283.49 195.72 272.66 197.43 261.84C183.6 247.22 169.39 233.03 154.84 219.25C155.51 218.25 156.32 217.32 157.25 216.47C172.6 230.99 187.55 245.99 202.09 261.46Z"/>
			<path id="Path 36 copy 2" class="shpp14" d="M261.25 310.35C248.59 294.69 240.84 274.04 240.14 250.29C240.1 249.05 240.04 247.75 239.97 246.41L302.02 246.41C304.08 248.82 306.06 251.3 308 253.81C316.41 264.69 324.28 276.39 327.55 291.14C331.56 309.19 328.48 330.85 332.19 349.07C303.66 343.65 278.23 331.34 261.25 310.35Z"/>
			<path id="Path 38 copy 2" class="shpp5" d="M274.94 261.57C287.45 262.31 300.29 262.16 313.42 261.14C313.92 261.85 314.42 262.57 314.9 263.29C301.92 264.39 289.22 264.64 276.82 264.05C284.55 274.21 292.06 284.58 299.35 295.15C299.44 295.21 299.5 295.3 299.53 295.41C299.65 295.58 299.76 295.74 299.88 295.91C309.09 297.76 318.74 298.65 328.8 298.52C328.9 299.28 328.98 300.04 329.06 300.81C319.64 301 310.57 300.34 301.87 298.82C312.14 313.88 321.98 329.34 331.35 345.2C331.95 346.21 330.03 348.09 329.43 347.06C319.65 330.53 309.38 314.42 298.62 298.74C294.98 310.13 291.34 321.53 287.7 332.92C287.12 332.57 286.54 332.22 285.96 331.87C289.71 320.14 293.46 308.42 297.2 296.7C289.49 285.53 281.54 274.58 273.34 263.86C273.22 263.85 273.1 263.85 272.99 263.84C270.9 271.97 268.82 280.09 266.73 288.21C265.01 294.9 263.65 301.6 259.54 308.14C259.15 307.61 258.75 307.08 258.37 306.54C262.51 299.52 263.72 291.79 265.53 284.75C267.52 276.98 269.52 269.22 271.51 261.46C262.42 249.67 253.03 238.17 243.35 226.93C243.91 226.26 244.56 225.65 245.3 225.1C255.5 236.94 265.39 249.1 274.94 261.57Z"/>
			<path id="Path 40 copy 2" class="shpp15" d="M93.08 259.39C113.35 231.81 161.07 236.66 199.66 270.23C238.25 303.79 253.09 353.36 232.81 380.94C212.54 408.52 164.82 403.67 126.23 370.11C87.65 336.54 72.8 286.97 93.08 259.39Z"/>
			<path id="Path 41 copy 2" class="shpp16" d="M205.3 417.9C204.58 411.66 202.3 405.63 203.35 398.8C200.57 403.55 198.61 408.86 197.55 414.38C184.19 407.88 171.05 400.85 158.15 393.32C156.97 387.57 156.19 382.13 157.98 375.4C156.99 375.48 151.66 379.58 149.29 388.03C141 382.99 132.82 377.74 124.76 372.28C117.39 367.28 110.01 361.95 102.98 356.16C103.1 354.76 106 343.64 114.39 334.59C114.39 334.59 99.34 339.75 93.97 348.24C81.22 336.27 70.45 322.35 64.31 305.5C68.76 301.88 73.03 296.14 77.19 294.35C72.09 293.48 61.29 293.97 61.05 294.01C57.84 278.54 58.54 261.14 62.98 246.41L64.79 246.41C85.28 282.67 113.46 313.51 142.8 341.93C162.13 360.65 182.62 378.88 206.82 388.88C217.43 393.27 254.39 401.11 266.55 402.23C257.81 406.41 249.08 410.59 240.34 414.76C234.01 417.79 227.48 420.87 220.57 421.13C220.24 421.14 219.92 421.15 219.6 421.15C214.7 421.15 209.93 419.78 205.3 417.9Z"/>
			<path id="Path 42 copy 2" class="shpp17" d="M206.82 388.88C182.62 378.88 162.13 360.65 142.8 341.93C113.46 313.51 85.28 282.67 64.79 246.41L98.18 246.41C98.75 249.34 99.4 252.24 100.27 255.07L100.27 255.06C101 252.3 102.18 249.38 103.46 246.41L128.28 246.41C130.33 248.6 132.26 250.94 134.2 253.24C138.16 257.94 142.24 262.54 146.42 267.03C134.57 275.82 129.81 292.43 130.81 297.32C130.41 295.35 149.51 278.96 156.72 277.64C170.44 291.19 185.19 303.49 200.95 314.06C198.78 317.05 185.35 329.04 184.55 347.59C189.16 341.58 193.82 335.51 199.34 330.45C203.44 326.67 208.58 324.74 213.09 321.95C216.99 324.55 220.76 327.35 224.07 330.78C231.51 338.47 235.95 348.53 240.16 358.84C237.91 360.56 235.72 362.47 234.35 363.57C232.17 365.32 229.98 367.09 228.2 369.32C225.46 372.77 223.89 377.13 222.74 381.51C223.31 379.42 236.61 372.78 238.92 371.23C240.77 369.98 242.39 368.95 243.76 367.67C245.46 371.74 247.24 375.76 249.28 379.59C253.81 388.13 259.7 395.81 266.59 402.22L266.55 402.23C254.39 401.11 217.43 393.27 206.82 388.88Z"/>
			<path id="Path 44 copy 2" class="shpp2" d="M55.41 229.91C74.02 268.92 101.54 301.67 131 331.3C156.09 356.54 183.37 383.77 217.39 393.02C232.34 397.08 247.62 400.45 262.91 402.56C263.8 402.68 263.94 401.19 263.06 401.07C249.57 399.2 236.14 396.26 222.9 392.92C217.59 391.59 212.18 390.26 207.06 388.18C198.25 384.6 189.87 379.76 181.93 374.3C166.12 363.43 151.95 349.97 138.12 336.35C123.15 321.63 108.65 306.29 95.35 289.76C80.45 271.23 67.11 251.18 56.67 229.29C56.26 228.44 55 229.05 55.41 229.91Z"/>
			<path id="Path 46 copy 2" class="shpp18" d="M49.65 256.35C19.96 274.99 17.04 329.95 43.13 379.09C69.21 428.24 114.42 452.96 144.11 434.32C173.8 415.67 176.72 360.72 150.64 311.57C124.55 262.43 79.34 237.7 49.65 256.35Z"/>
			<path id="Path 47 copy 2" class="shpp19" d="M68.07 479.59C60.66 466.9 60.49 450.93 60.7 435.9C60.75 432 60.77 427.91 59.13 424.44C57.48 420.98 53.56 418.45 50.25 419.95C45.04 422.3 46.1 430.92 42.67 435.78C38.72 441.39 29.85 439.59 25.88 433.99C21.91 428.39 21.59 420.75 21.93 413.69C22.68 397.65 25.93 381.75 31.48 366.88C33.67 361.01 35.37 352.5 30.09 349.86C25.61 347.61 20.81 352.54 18.88 357.47C16.94 362.39 15.84 368.28 11.71 371.19C8.12 373.73 3.56 372.79 0 370.06L0 293.17C1.75 277.51 3.61 261.87 6.07 246.41L45.1 246.41C56.03 255.61 66.97 264.8 77.9 274C82.61 277.96 87.63 285.47 83.32 289.93C81.69 291.62 79.2 292.03 77.6 293.75C75.22 296.3 75.8 300.85 77.88 303.7C79.95 306.55 83.09 308.18 86.02 309.93C100.43 318.55 112.16 332.38 118.89 348.7C121.8 355.74 123.81 363.64 122.19 371.16C120.57 378.67 114.36 385.42 107.27 384.96C104.74 384.8 102.2 383.77 99.73 384.39C95.21 385.53 93.26 391.9 94.73 396.69C96.19 401.48 99.95 404.95 103.59 408.1C110.05 413.67 116.8 419.15 121.49 426.54C126.18 433.93 128.5 443.77 125.19 451.99C121.88 460.22 111.69 465.08 104.78 460.17C111.93 467.99 111.3 482.51 103.51 489.57C100.06 492.7 95.88 494.08 91.57 494.08C82.62 494.08 73.07 488.15 68.07 479.59Z"/>
			<path id="Path 49 copy 2" class="shpp5" d="M83.71 346.97C63.86 323.75 46.15 298.46 30.83 271.49C46.35 315.76 59.97 360.82 71.56 406.49C72.52 410.26 73.46 414.04 74.39 417.82C82.02 427.64 90.87 436.12 100.78 443.14C101.69 443.79 100.67 445.24 99.76 444.6C90.71 438.19 82.55 430.54 75.37 421.8C79.46 438.63 83.29 455.54 86.86 472.51C87.1 473.66 85.43 473.88 85.19 472.74C77.24 434.9 67.93 397.4 57.32 360.34C52.05 374.72 46.78 389.1 41.5 403.48C41.1 404.58 39.55 403.88 39.95 402.78C45.47 387.75 50.98 372.71 56.49 357.68C56.5 357.64 56.52 357.61 56.54 357.58C46.22 321.8 34.68 286.44 21.92 251.6C19.72 282.26 16.01 312.76 10.77 342.97C10.57 344.13 8.91 343.89 9.11 342.73C14.55 311.34 18.36 279.65 20.52 247.8C19.6 245.3 18.69 242.8 17.75 240.31C14.29 231.07 10.74 221.88 7.11 212.72L8.65 212.03C15.26 228.72 21.6 245.55 27.66 262.49C27.76 262.55 27.85 262.64 27.93 262.79C44.19 292.61 63.33 320.46 85.04 345.85C85.78 346.71 84.44 347.83 83.71 346.97Z"/>
		</g>
	</g>
</svg>