<?xml version="1.0" encoding="iso-8859-1"?>
<!-- Generator: Adobe Illustrator 17.1.0, SVG Export Plug-In . SVG Version: 6.00 Build 0)  -->
<!DOCTYPE svg PUBLIC "-//W3C//DTD SVG 1.1//EN" "http://www.w3.org/Graphics/SVG/1.1/DTD/svg11.dtd">
<svg version="1.1" id="Capa_1" xmlns="http://www.w3.org/2000/svg" xmlns:xlink="http://www.w3.org/1999/xlink" x="0px" y="0px"
	 viewBox="0 0 388.23 388.23" style="enable-background:new 0 0 388.23 388.23;" xml:space="preserve">
<path id="XMLID_1195_" d="M239.243,59.544c-4.971,0-9-4.029-9-9s4.029-9,9-9c16.809,0,30.21,13.333,30.512,30.353
	c0.088,4.97-3.87,9.07-8.84,9.158c-0.054,0.001-0.108,0.001-0.162,0.001c-4.897,0-8.909-3.925-8.996-8.841
	C251.631,65.11,246.134,59.544,239.243,59.544z M130.054,154.858c1.762,1.79,4.087,2.687,6.415,2.687c2.279,0,4.56-0.86,6.313-2.585
	c3.542-3.486,3.588-9.185,0.102-12.728c-27.327-27.767-41.602-51.912-41.284-69.828c0.462-26.241,20.948-46.797,46.638-46.797
	c15.363,0,29.741,7.573,38.46,20.257c1.679,2.442,4.453,3.901,7.416,3.902h0c2.964,0,5.737-1.459,7.416-3.901
	c8.722-12.685,23.1-20.258,38.461-20.258c25.689,0,46.177,20.556,46.64,46.798c0.317,17.913-13.959,42.059-41.285,69.828
	c-3.486,3.543-3.44,9.241,0.103,12.728c3.543,3.486,9.24,3.441,12.728-0.102c31.674-32.187,46.868-59.261,46.453-82.771
	c-0.306-17.253-7.093-33.421-19.113-45.523C273.374,14.34,257.207,7.607,239.992,7.607c-17.376,0-33.843,6.988-45.876,19.109
	c-12.033-12.122-28.499-19.109-45.877-19.109c-17.216,0-33.384,6.732-45.524,18.956c-12.02,12.103-18.807,28.27-19.111,45.522
	C83.185,95.598,98.379,122.673,130.054,154.858z M310.829,21.182c2.021,0,4.054-0.677,5.731-2.065l3.846-3.182
	c3.83-3.168,4.366-8.842,1.198-12.671c-3.168-3.83-8.843-4.366-12.671-1.198l-3.846,3.181c-3.83,3.168-4.366,8.842-1.198,12.672
	C305.669,20.07,308.239,21.182,310.829,21.182z M57.251,47.382l-4.921-0.837c-4.896-0.833-9.548,2.463-10.382,7.363
	c-0.833,4.9,2.463,9.548,7.363,10.382l4.921,0.837c0.511,0.087,1.019,0.129,1.52,0.129c4.308,0,8.115-3.103,8.862-7.492
	C65.448,52.864,62.151,48.216,57.251,47.382z M314.604,146.024h-19.513c-4.611,0-8.477,3.486-8.952,8.073
	c-4.894,47.244-44.455,82.87-92.022,82.87c-47.571,0-87.133-35.626-92.024-82.87c-0.475-4.587-4.34-8.073-8.952-8.073H73.626
	c-4.971,0-9,4.029-9,9s4.029,9,9,9h11.7c4.28,23.915,16.364,45.799,34.551,62.298c18.129,16.447,41.018,26.315,65.239,28.281v59.577
	h-78.579c-20.416,0-37.025,16.609-37.025,37.024c0,20.416,16.609,37.026,37.025,37.026h59.552c1.814,0,3.587-0.549,5.084-1.574
	l40.936-28.026c4.102-2.808,5.15-8.409,2.342-12.51c-2.808-4.102-8.41-5.15-12.51-2.342l-38.638,26.453h-56.766
	c-10.49,0-19.025-8.535-19.025-19.026c0-10.49,8.535-19.024,19.025-19.024h175.156c10.49,0,19.025,8.534,19.025,19.024
	c0,10.491-8.535,19.026-19.025,19.026H222.14c-4.971,0-9,4.029-9,9s4.029,9,9,9h59.554c20.416,0,37.025-16.61,37.025-37.026
	c0-20.415-16.609-37.024-37.025-37.024h-78.577v-59.577c24.219-1.966,47.105-11.833,65.234-28.281
	c18.188-16.5,30.271-38.384,34.554-62.298h11.699c4.971,0,9-4.029,9-9S319.575,146.024,314.604,146.024z M346.283,53.909
	c-0.834-4.9-5.488-8.197-10.382-7.364l-4.922,0.837c-4.9,0.833-8.197,5.481-7.363,10.382c0.746,4.39,4.554,7.492,8.861,7.492
	c0.501,0,1.01-0.042,1.52-0.129l4.922-0.837C343.819,63.457,347.116,58.809,346.283,53.909z M196.849,136.77
	c18.261,5.818,30.53,22.611,30.53,41.787c0,19.175-12.27,35.968-30.53,41.786c-0.889,0.283-1.811,0.425-2.732,0.425
	c-0.921,0-1.843-0.142-2.732-0.425c-18.264-5.818-30.535-22.611-30.535-41.787c0-19.177,12.271-35.97,30.535-41.787
	C193.163,136.203,195.07,136.203,196.849,136.77z M194.116,154.961c-9.239,4.125-15.266,13.274-15.266,23.595
	c0,10.321,6.027,19.47,15.266,23.595c9.238-4.125,15.263-13.274,15.263-23.595C209.379,168.235,203.354,159.086,194.116,154.961z
	 M67.822,15.933l3.844,3.181c1.679,1.39,3.712,2.067,5.733,2.067c2.589,0,5.159-1.112,6.938-3.262
	c3.169-3.829,2.635-9.502-1.194-12.672l-3.844-3.181c-3.829-3.169-9.503-2.635-12.671,1.195
	C63.457,7.091,63.993,12.764,67.822,15.933z"/>
<g>
</g>
<g>
</g>
<g>
</g>
<g>
</g>
<g>
</g>
<g>
</g>
<g>
</g>
<g>
</g>
<g>
</g>
<g>
</g>
<g>
</g>
<g>
</g>
<g>
</g>
<g>
</g>
<g>
</g>
</svg>
