<?xml version="1.0" encoding="iso-8859-1"?>
<!-- Generator: Adobe Illustrator 17.1.0, SVG Export Plug-In . SVG Version: 6.00 Build 0)  -->
<!DOCTYPE svg PUBLIC "-//W3C//DTD SVG 1.1//EN" "http://www.w3.org/Graphics/SVG/1.1/DTD/svg11.dtd">
<svg version="1.1" id="Capa_1" xmlns="http://www.w3.org/2000/svg" xmlns:xlink="http://www.w3.org/1999/xlink" x="0px" y="0px"
	 viewBox="0 0 386.43 386.43" style="enable-background:new 0 0 386.43 386.43;" xml:space="preserve">
<path id="XMLID_880_" d="M86.827,112.615c13.353-47.394,57.101-80.494,106.389-80.494c49.288,0,93.037,33.1,106.39,80.494
	c1.348,4.784-1.438,9.756-6.222,11.104c-4.784,1.348-9.755-1.437-11.104-6.222c-11.177-39.67-47.802-67.375-89.065-67.375
	c-41.263,0-77.887,27.706-89.064,67.375c-1.118,3.968-4.729,6.561-8.658,6.562c-0.808,0-1.629-0.109-2.445-0.339
	C88.264,122.371,85.478,117.399,86.827,112.615z M111,38.06c1.667,2.887,4.692,4.502,7.803,4.502c1.527,0,3.074-0.389,4.492-1.207
	c4.305-2.485,5.779-7.99,3.294-12.294l-2.31-4c-2.484-4.305-7.988-5.78-12.294-3.294c-4.305,2.485-5.779,7.989-3.294,12.294
	L111,38.06z M193.216,22.619c4.971,0,9-4.029,9-9V9c0-4.97-4.029-9-9-9s-9,4.03-9,9v4.619
	C184.216,18.59,188.245,22.619,193.216,22.619z M263.135,41.353c1.418,0.819,2.965,1.208,4.493,1.208c3.109,0,6.135-1.614,7.802-4.5
	l2.311-4c2.486-4.304,1.012-9.809-3.292-12.295c-4.305-2.486-9.809-1.013-12.295,3.292l-2.311,4
	C257.357,33.363,258.831,38.867,263.135,41.353z M72.11,92.54c2.484-4.305,1.009-9.809-3.296-12.294l-4.001-2.309
	c-4.304-2.485-9.808-1.01-12.294,3.296c-2.485,4.305-1.009,9.809,3.296,12.294l4.001,2.309c1.417,0.818,2.964,1.207,4.491,1.207
	C67.417,97.042,70.443,95.427,72.11,92.54z M252.024,162.09c4.89,0.853,9.558-2.422,10.413-7.319
	c0.693-3.973,1.044-8.053,1.044-12.127c0-38.745-31.521-70.266-70.266-70.266s-70.266,31.521-70.266,70.266
	c0,4.068,0.352,8.147,1.044,12.125c0.762,4.375,4.563,7.457,8.856,7.457c0.513,0,1.033-0.044,1.555-0.135
	c4.897-0.853,8.175-5.514,7.322-10.411c-0.516-2.96-0.777-6-0.777-9.036c0-28.82,23.446-52.266,52.266-52.266
	s52.266,23.447,52.266,52.266c0,3.04-0.261,6.079-0.777,9.033C243.851,156.574,247.127,161.236,252.024,162.09z M313.704,144.224
	H294.19c-4.612,0-8.477,3.486-8.952,8.073c-4.891,47.244-44.452,82.87-92.022,82.87s-87.131-35.626-92.022-82.87
	c-0.475-4.587-4.34-8.073-8.952-8.073H72.727c-4.971,0-9,4.029-9,9s4.029,9,9,9h11.7c4.28,23.915,16.364,45.798,34.551,62.298
	c18.129,16.447,41.017,26.315,65.237,28.281v59.577h-78.577c-20.416,0-37.026,16.609-37.026,37.024
	c0,20.416,16.61,37.026,37.026,37.026h59.553c1.815,0,3.587-0.549,5.084-1.574l40.933-28.026c4.102-2.808,5.15-8.409,2.342-12.51
	c-2.808-4.101-8.409-5.15-12.511-2.342l-38.634,26.452h-56.767c-10.491,0-19.026-8.535-19.026-19.026
	c0-10.49,8.535-19.024,19.026-19.024h175.155c10.491,0,19.026,8.534,19.026,19.024c0,10.491-8.535,19.026-19.026,19.026h-59.552
	c-4.971,0-9,4.029-9,9s4.029,9,9,9h59.552c20.416,0,37.026-16.61,37.026-37.026c0-20.415-16.61-37.024-37.026-37.024h-78.578
	v-59.577c24.22-1.966,47.107-11.833,65.236-28.281c18.188-16.5,30.271-38.384,34.552-62.298h11.7c4.971,0,9-4.029,9-9
	S318.675,144.224,313.704,144.224z M195.947,134.969c18.261,5.817,30.53,22.61,30.53,41.787c0,19.176-12.269,35.969-30.53,41.786
	c-0.889,0.283-1.811,0.425-2.732,0.425c-0.922,0-1.843-0.142-2.732-0.425c-18.262-5.819-30.531-22.611-30.531-41.786
	c0-19.176,12.27-35.969,30.532-41.787C192.261,134.404,194.171,134.404,195.947,134.969z M193.216,153.161
	c-9.238,4.125-15.264,13.274-15.264,23.595c0,10.321,6.026,19.47,15.264,23.595c9.237-4.125,15.262-13.274,15.262-23.595
	C208.477,166.435,202.453,157.285,193.216,153.161z M333.911,81.23c-2.486-4.304-7.992-5.778-12.294-3.293l-4,2.31
	c-4.305,2.486-5.779,7.99-3.293,12.295c1.667,2.887,4.692,4.501,7.802,4.501c1.527,0,3.075-0.389,4.492-1.208l4-2.31
	C334.922,91.04,336.396,85.535,333.911,81.23z"/>
<g>
</g>
<g>
</g>
<g>
</g>
<g>
</g>
<g>
</g>
<g>
</g>
<g>
</g>
<g>
</g>
<g>
</g>
<g>
</g>
<g>
</g>
<g>
</g>
<g>
</g>
<g>
</g>
<g>
</g>
</svg>
