<svg xmlns="http://www.w3.org/2000/svg" viewBox="0 0 353 620" width="353" height="620">
	<defs>
		<radialGradient id="jrd1" gradientUnits="userSpaceOnUse" cx="254.628" cy="235.88" r="65.594">
			<stop offset="0" stop-color="#005100"/>
			<stop offset="0.979" stop-color="#ffffff"/>
			<stop offset="1" stop-color="#ffffff"/>
		</radialGradient>
		<linearGradient id="jrd2" gradientUnits="userSpaceOnUse" x1="131.056" y1="295.796" x2="15.821" y2="257.616">
			<stop offset="0" stop-color="#003568"/>
			<stop offset="1" stop-color="#007064"/>
		</linearGradient>
		<linearGradient id="jrd3" gradientUnits="userSpaceOnUse" x1="48.75" y1="243.99" x2="205.32" y2="243.99">
			<stop offset="0" stop-color="#00d365"/>
			<stop offset="1" stop-color="#009354"/>
		</linearGradient>
		<linearGradient id="jrd4" gradientUnits="userSpaceOnUse" x1="369.691" y1="125.878" x2="334.258" y2="201.886">
			<stop offset="0" stop-color="#36dd8b"/>
			<stop offset="0.979" stop-color="#80ed9c"/>
			<stop offset="1" stop-color="#80ed9c"/>
		</linearGradient>
		<radialGradient id="jrd5" gradientUnits="userSpaceOnUse" cx="175.706" cy="277.752" r="65.624">
			<stop offset="0" stop-color="#005100"/>
			<stop offset="0.979" stop-color="#ffffff"/>
			<stop offset="1" stop-color="#ffffff"/>
		</radialGradient>
		<radialGradient id="jrd6" gradientUnits="userSpaceOnUse" cx="258.628" cy="235.88" r="65.594">
			<stop offset="0" stop-color="#005100"/>
			<stop offset="0.979" stop-color="#ffffff"/>
			<stop offset="1" stop-color="#ffffff"/>
		</radialGradient>
		<linearGradient id="jrd7" gradientUnits="userSpaceOnUse" x1="237.871" y1="301.443" x2="133.52" y2="226.184">
			<stop offset="0" stop-color="#36dd8b"/>
			<stop offset="0.979" stop-color="#80ed9c"/>
			<stop offset="1" stop-color="#80ed9c"/>
		</linearGradient>
		<linearGradient id="jrd8" gradientUnits="userSpaceOnUse" x1="256.381" y1="209.565" x2="190.931" y2="111.453">
			<stop offset="0" stop-color="#003568"/>
			<stop offset="1" stop-color="#007064"/>
		</linearGradient>
		<linearGradient id="jrd9" gradientUnits="userSpaceOnUse" x1="333.198" y1="337.655" x2="291.587" y2="145.506">
			<stop offset="0" stop-color="#00a9a3"/>
			<stop offset="1" stop-color="#007064"/>
		</linearGradient>
		<linearGradient id="jrd10" gradientUnits="userSpaceOnUse" x1="249.326" y1="236.205" x2="266.029" y2="222.308">
			<stop offset="0" stop-color="#005268"/>
			<stop offset="1" stop-color="#007064"/>
		</linearGradient>
		<linearGradient id="jrd11" gradientUnits="userSpaceOnUse" x1="293.561" y1="314.108" x2="174.854" y2="202.641">
			<stop offset="0" stop-color="#00a9a3"/>
			<stop offset="1" stop-color="#007064"/>
		</linearGradient>
		<radialGradient id="jrd12" gradientUnits="userSpaceOnUse" cx="254.628" cy="383.816" r="65.594">
			<stop offset="0" stop-color="#005100"/>
			<stop offset="0.979" stop-color="#ffffff"/>
			<stop offset="1" stop-color="#ffffff"/>
		</radialGradient>
		<linearGradient id="jrd13" gradientUnits="userSpaceOnUse" x1="131.056" y1="367.003" x2="15.821" y2="328.823">
			<stop offset="0" stop-color="#003568"/>
			<stop offset="1" stop-color="#007064"/>
		</linearGradient>
		<linearGradient id="jrd14" gradientUnits="userSpaceOnUse" x1="48.75" y1="401.076" x2="205.32" y2="401.076">
			<stop offset="0" stop-color="#00d365"/>
			<stop offset="1" stop-color="#009354"/>
		</linearGradient>
		<linearGradient id="jrd15" gradientUnits="userSpaceOnUse" x1="369.691" y1="353.781" x2="334.258" y2="429.789">
			<stop offset="0" stop-color="#36dd8b"/>
			<stop offset="0.979" stop-color="#80ed9c"/>
			<stop offset="1" stop-color="#80ed9c"/>
		</linearGradient>
		<radialGradient id="jrd16" gradientUnits="userSpaceOnUse" cx="175.706" cy="341.943" r="65.624">
			<stop offset="0" stop-color="#005100"/>
			<stop offset="0.979" stop-color="#ffffff"/>
			<stop offset="1" stop-color="#ffffff"/>
		</radialGradient>
		<radialGradient id="jrd17" gradientUnits="userSpaceOnUse" cx="258.628" cy="383.816" r="65.594">
			<stop offset="0" stop-color="#005100"/>
			<stop offset="0.979" stop-color="#ffffff"/>
			<stop offset="1" stop-color="#ffffff"/>
		</radialGradient>
		<linearGradient id="jrd18" gradientUnits="userSpaceOnUse" x1="237.871" y1="384.493" x2="133.52" y2="309.233">
			<stop offset="0" stop-color="#36dd8b"/>
			<stop offset="0.979" stop-color="#80ed9c"/>
			<stop offset="1" stop-color="#80ed9c"/>
		</linearGradient>
		<linearGradient id="jrd19" gradientUnits="userSpaceOnUse" x1="256.381" y1="492.551" x2="190.931" y2="394.439">
			<stop offset="0" stop-color="#003568"/>
			<stop offset="1" stop-color="#007064"/>
		</linearGradient>
		<linearGradient id="jrd20" gradientUnits="userSpaceOnUse" x1="333.198" y1="537.438" x2="291.587" y2="345.289">
			<stop offset="0" stop-color="#00a9a3"/>
			<stop offset="1" stop-color="#007064"/>
		</linearGradient>
		<linearGradient id="jrd21" gradientUnits="userSpaceOnUse" x1="249.326" y1="378.282" x2="266.029" y2="364.386">
			<stop offset="0" stop-color="#005268"/>
			<stop offset="1" stop-color="#007064"/>
		</linearGradient>
		<linearGradient id="jrd22" gradientUnits="userSpaceOnUse" x1="293.561" y1="449.253" x2="174.854" y2="337.786">
			<stop offset="0" stop-color="#00a9a3"/>
			<stop offset="1" stop-color="#007064"/>
		</linearGradient>
	</defs>
	<style>
		tspan { white-space:pre }
		.shppp0 { mix-blend-mode: multiply;fill: url(#jrd1) } 
		.shppp1 { fill: #03323d } 
		.shppp2 { fill: url(#jrd2) } 
		.shppp3 { fill: url(#jrd3) } 
		.shppp4 { fill: #066339 } 
		.shppp5 { fill: url(#jrd4) } 
		.shppp6 { mix-blend-mode: multiply;fill: url(#jrd5) } 
		.shppp7 { mix-blend-mode: multiply;fill: url(#jrd6) } 
		.shppp8 { fill: url(#jrd7) } 
		.shppp9 { fill: #0caf59 } 
		.shppp10 { fill: url(#jrd8) } 
		.shppp11 { fill: url(#jrd9) } 
		.shppp12 { fill: #024f44 } 
		.shppp13 { fill: url(#jrd10) } 
		.shppp14 { fill: url(#jrd11) } 
		.shppp15 { mix-blend-mode: multiply;fill: url(#jrd12) } 
		.shppp16 { fill: url(#jrd13) } 
		.shppp17 { fill: url(#jrd14) } 
		.shppp18 { fill: url(#jrd15) } 
		.shppp19 { mix-blend-mode: multiply;fill: url(#jrd16) } 
		.shppp20 { mix-blend-mode: multiply;fill: url(#jrd17) } 
		.shppp21 { fill: url(#jrd18) } 
		.shppp22 { fill: url(#jrd19) } 
		.shppp23 { fill: url(#jrd20) } 
		.shppp24 { fill: url(#jrd21) } 
		.shppp25 { fill: url(#jrd22) } 
	</style>
	<g id="Folder 1">
		<path id="Path 81" class="shppp0" d="M302.66 293.38C281.79 310.81 243.37 299.2 216.84 267.44C190.32 235.68 185.73 195.81 206.6 178.38C227.46 160.95 265.89 172.56 292.41 204.32C318.94 236.08 323.53 275.95 302.66 293.38Z"/>
		<path id="Path 59" class="shppp1" d="M308.18 168.23C325.89 159.2 341.22 146.58 347.14 116.38C323.51 136 312 159.33 308.65 166.37C311.66 154.31 313.5 141.84 314.13 129.23C318.34 125.95 337.47 108.55 335.73 80.75C324.49 93.24 317.64 108.03 314.32 124C314.61 111.79 313.76 99.49 311.79 87.37C315.48 84.16 330.51 68.93 326.23 42.89C317.96 54.78 312.82 69.32 311.25 84.19C309.47 74.24 306.93 64.44 303.67 54.91C310.61 46.02 318.38 38.76 312.43 20.84C301.42 30.25 302.33 46.42 302.92 52.78C301.19 47.91 299.27 43.11 297.17 38.42C297.82 34.62 298.98 12.48 277.68 0.65C278.96 7.7 280.07 14.8 282.64 21.45C285 27.52 290.12 34.32 295.54 38.11C297.67 42.88 299.62 47.76 301.37 52.71C291.39 41.61 279.85 39.83 273.06 41.98C279.1 56.34 298.5 54.15 301.71 53.67C304.97 63.05 307.51 72.7 309.32 82.49C302.05 69.55 289.32 61.82 277.1 55.35C283.61 68.66 295.68 79.42 309.56 83.8C312.09 98.02 313.06 112.5 312.44 126.82C307.88 107.91 290.95 90.48 274.15 85.4C279.65 103.57 296.23 116.46 310.08 126.99C310.85 127.27 311.62 127.55 312.39 127.84C311.79 140.26 309.99 152.55 307.06 164.43C304.61 154.98 289.8 119.48 271.2 113.8C271.7 134.59 292.15 152.71 306.75 165.68C304.94 172.81 302.73 179.8 300.11 186.57C300.11 186.57 300.11 186.57 300.11 186.57C299.89 187.15 300.15 187.81 300.69 188.04C301.23 188.28 301.84 188 302.06 187.42C304.44 181.18 306.48 174.77 308.18 168.23Z"/>
		<path id="Path 59" class="shppp2" d="M58.09 238.86C38.92 241.86 19.33 253.75 0.13 257.13C14.79 280.28 33.14 299.25 54.82 310.42L146.15 310.42C153.85 307.02 160.31 301.8 157.08 290.37C153.6 278.03 145.9 268.51 137.91 261.86C127.49 253.19 115.13 248.45 102.65 244.5C91.66 241.01 80.34 238.07 68.5 238.07C65.07 238.07 61.61 238.31 58.09 238.86Z"/>
		<path id="Path 61" class="shppp1" d="M109.53 282.34C103.38 269.48 97.94 255.93 93.22 241.72C92.31 241.48 91.4 241.25 90.49 241.03C95.08 255.11 100.35 268.56 106.31 281.34C93.13 277.28 79.85 273.53 66.48 270.1C66.38 270.03 66.27 270 66.14 270.01C65.93 269.96 65.73 269.9 65.51 269.85C59.72 260.9 54.67 251.12 50.43 240.5C49.65 240.7 48.87 240.92 48.1 241.14C52.01 251.11 56.59 260.38 61.84 268.92C42.82 264.14 23.62 259.98 4.23 256.46C2.99 256.24 2.01 259 3.26 259.23C23.48 262.9 43.51 267.26 63.32 272.3C53.9 280.67 44.48 289.05 35.06 297.43C35.64 297.9 36.23 298.37 36.82 298.83C46.52 290.21 56.22 281.59 65.91 272.97C80.06 276.61 94.09 280.6 108.01 284.94C108.07 285.05 108.12 285.17 108.18 285.29C101.24 290.73 94.29 296.16 87.35 301.6C81.64 306.08 75.76 310.18 71.23 317.11C71.91 317.32 72.59 317.52 73.28 317.71C78.26 310.55 85.2 306.19 91.23 301.48C97.86 296.28 104.49 291.09 111.12 285.9C126.46 290.74 141.65 296.01 156.7 301.69C157.11 300.83 157.42 299.9 157.63 298.91C141.76 292.92 125.72 287.39 109.53 282.34Z"/>
		<path id="Path 63" class="shppp3" d="M79 164.48C76.76 155.73 66.26 150.13 57.74 153.14C46.14 157.23 43.06 173.46 48.62 184.44C54.17 195.42 65.32 202.24 75.99 208.38C78.76 209.97 81.64 211.67 83.33 214.38C85.02 217.09 85.02 221.15 82.45 223.05C80.05 224.85 77.09 223.99 74.04 223.14C71.97 222.56 69.87 221.99 67.86 222.22C62.11 222.9 59.34 230.44 61.47 235.82C63.6 241.21 68.83 244.65 73.95 247.35C85.58 253.49 98.24 257.66 111.24 259.64C116.36 260.43 123.12 262.68 122.57 267.84C122.11 272.21 116.46 273.81 112.11 273.23C107.76 272.66 103.12 271.03 99.19 272.97C93.85 275.6 93.39 283.6 96.75 288.51C100.11 293.42 105.89 295.97 111.37 298.28C120.7 302.16 130 306.28 139.3 310.42L203.5 310.42C203.43 309.94 203.37 309.46 203.32 309C201.45 293.68 199.58 278.35 197.72 263.03C197.08 257.76 194.08 250.78 188.98 252.21C187.05 252.75 185.63 254.48 183.69 254.99C180.81 255.74 177.88 253.39 176.82 250.61C175.75 247.82 176.04 244.74 176.14 241.77C176.64 227.13 172.26 212.36 163.85 200.37C160.22 195.2 155.58 190.35 149.55 188.44C143.52 186.53 135.95 188.46 133.04 194.07C132 196.08 131.57 198.45 130.01 200.08C127.15 203.07 121.78 201.89 119.08 198.76C116.37 195.63 115.64 191.3 115.09 187.21C114.11 179.92 113.33 172.46 110.27 165.78C107.21 159.1 101.34 153.2 94.05 152.29C93.54 152.22 93.02 152.19 92.51 152.19C85.67 152.19 78.71 157.65 79 164.48Z"/>
		<path id="Path 65" class="shppp4" d="M149.03 228.01C156.32 252.94 166.05 277.07 178.04 300.09C153.97 269.68 128.48 240.39 101.63 212.38C99.41 210.07 97.18 207.77 94.95 205.47C91.51 195.52 89.58 185.2 89.16 174.67C89.12 173.71 87.63 173.88 87.67 174.84C88.06 184.45 89.72 193.9 92.59 203.06C82.62 192.87 72.47 182.86 62.15 173.03C61.45 172.36 60.54 173.55 61.23 174.21C84.23 196.14 106.37 218.97 127.61 242.61C115.09 240.62 102.57 238.63 90.05 236.64C89.1 236.49 88.88 237.97 89.83 238.13C102.92 240.2 116.01 242.28 129.1 244.36C129.13 244.37 129.16 244.37 129.19 244.37C149.66 267.25 169.28 290.89 187.98 315.24C165.41 304.09 142.26 294.15 118.62 285.5C117.71 285.17 117.12 286.55 118.03 286.88C142.59 295.86 166.62 306.22 190.01 317.91C191.34 319.66 192.69 321.41 194.02 323.16C198.94 329.68 203.79 336.25 208.57 342.87L209.76 341.98C201.03 329.93 192.09 318.03 182.93 306.3C182.93 306.19 182.91 306.08 182.84 305.96C169.27 281.03 158.4 254.72 150.43 227.47C150.16 226.54 148.76 227.1 149.03 228.01Z"/>
		<path id="Path 67" class="shppp5" d="M318 218.17L318 173.62C314.71 187.63 314.55 202.72 318 218.17Z"/>
		<path id="Path 68" class="shppp6" d="M234.51 324.18C217.66 345.52 177.67 342.03 145.2 316.39C112.72 290.75 100.05 252.66 116.9 231.32C133.76 209.98 173.74 213.47 206.22 239.11C238.69 264.76 251.36 302.84 234.51 324.18Z"/>
		<path id="Path 69" class="shppp7" d="M306.66 293.38C285.79 310.81 247.37 299.2 220.84 267.44C194.32 235.68 189.73 195.81 210.6 178.38C231.46 160.95 269.89 172.56 296.41 204.32C322.94 236.08 327.53 275.95 306.66 293.38Z"/>
		<path id="Path 70" class="shppp8" d="M155.33 227.27C145.15 228.08 134.96 228.89 125.46 227.77C134.38 259.61 150.15 287.18 174.01 304.26C177.15 306.51 180.44 308.56 183.86 310.42L266.05 310.42C266.49 308.86 266.75 307.08 266.78 305.04C266.99 292.16 262.34 280.78 256.57 272.08C249.06 260.74 238.54 252.62 227.69 245.21C215.36 236.81 202.24 229.1 186.47 226.94C182.72 226.42 178.86 226.23 174.93 226.23C168.52 226.23 161.92 226.75 155.33 227.27Z"/>
		<path id="Path 72" class="shppp9" d="M223.37 283.58C221.17 269.45 219.85 254.85 219.41 239.83C218.61 239.33 217.81 238.85 217 238.37C217.34 253.23 218.53 267.69 220.57 281.7C209.07 273.99 197.38 266.55 185.51 259.39C185.44 259.3 185.34 259.23 185.22 259.21L184.66 258.87C181.67 248.6 179.64 237.73 178.63 226.29C177.82 226.27 177.01 226.25 176.2 226.24C177.08 236.96 178.81 247.2 181.4 256.91C164.49 246.83 147.22 237.29 129.59 228.31C128.47 227.74 126.72 230.11 127.87 230.7C146.25 240.06 164.24 250.03 181.84 260.59C170.37 265.93 158.89 271.26 147.42 276.6C147.84 277.22 148.27 277.84 148.71 278.46C160.52 272.97 172.33 267.48 184.14 261.99C196.69 269.57 209.03 277.46 221.16 285.64C221.18 285.77 221.2 285.9 221.22 286.03C212.98 289.26 204.73 292.48 196.49 295.71C189.71 298.36 182.87 300.61 176.51 305.96C177.11 306.36 177.71 306.75 178.31 307.13C185.17 301.69 193.1 299.5 200.25 296.7C208.13 293.62 216 290.54 223.87 287.46C237.23 296.54 250.32 306 263.15 315.81C263.79 315.1 264.35 314.29 264.84 313.4C251.31 303.06 237.49 293.12 223.37 283.58Z"/>
		<path id="Path 74" class="shppp10" d="M193.65 190.46C205.57 208.71 224.01 222.97 247.73 230.37C258.24 233.65 272.94 240.74 279.49 224.69C284.33 212.81 284.12 200.57 281.91 190.41C279.03 177.16 272.2 165.83 264.8 155.03C256.39 142.78 246.99 130.89 233.13 123.18C216.17 113.75 193.42 111.07 176.19 101.92C172.98 134.7 177.66 165.99 193.65 190.46Z"/>
		<path id="Path 76" class="shppp1" d="M246.94 189.09C250 175.18 254.04 161.15 259.06 147.04C258.5 146.3 257.93 145.55 257.35 144.82C252.29 158.74 248.18 172.59 245.02 186.33C237.12 175.03 228.96 163.9 220.53 152.96C220.49 152.85 220.42 152.76 220.32 152.69C220.19 152.52 220.06 152.34 219.92 152.17C220.86 141.55 222.9 130.74 226.08 119.75C225.35 119.44 224.6 119.13 223.85 118.83C220.8 129.1 218.71 139.22 217.6 149.18C205.55 133.72 192.96 118.62 179.84 103.92C179 102.98 176.52 104.56 177.37 105.51C191.06 120.84 204.16 136.59 216.69 152.76C204.11 153.56 191.52 154.37 178.94 155.18C179.11 155.91 179.29 156.65 179.47 157.38C192.42 156.54 205.37 155.71 218.32 154.88C227.23 166.45 235.83 178.23 244.14 190.21C244.12 190.34 244.08 190.47 244.06 190.59C235.24 190.61 226.42 190.63 217.61 190.64C210.35 190.66 203.19 190.28 195.35 192.95C195.76 193.54 196.18 194.11 196.6 194.69C204.93 192.11 213.09 192.94 220.73 192.93C229.16 192.91 237.58 192.89 246 192.88C255.12 206.13 263.86 219.64 272.23 233.37C273.08 232.95 273.89 232.41 274.67 231.75C265.84 217.26 256.6 203.04 246.94 189.09Z"/>
		<path id="Path 77" class="shppp11" d="M260.06 110.85C252.35 114.13 247.84 123.12 250.1 130.69C251.67 135.95 255.91 140.09 257.83 145.23C259.75 150.37 257.69 157.84 251.91 158.51C248.99 158.85 246.23 157.28 243.3 157.19C236.17 156.98 231.8 165.92 234.26 172.21C236.72 178.5 243.21 182.35 249.39 185.61C255.56 188.87 262.19 192.34 265.3 198.35C268.41 204.36 265.63 213.56 258.55 214.68C256.62 214.99 254.65 214.66 252.7 214.34C250.34 213.94 248.01 213.55 245.76 214.26C241.5 215.61 239.46 220.55 240.15 224.7C240.85 228.85 243.56 232.37 246.2 235.7C260.62 253.99 275.05 272.28 289.47 290.57C292.94 294.96 297.59 302.56 302.85 310.42L318 310.42L318 130.61C316.42 130.95 314.88 131.58 313.44 132.55C308.59 135.8 305.78 142.1 299.99 143.22C294 144.37 288.91 138.98 287.03 133.55C285.16 128.11 285.02 122.05 281.93 117.16C278.88 112.33 272.91 109.49 266.93 109.49C264.58 109.49 262.23 109.93 260.06 110.85Z"/>
		<path id="Path 79" class="shppp12" d="M344.91 221.96C338.19 252.15 334.48 282.81 333.82 313.51C324.53 278.24 313.67 243.37 301.27 209.01C303.78 198.41 306.28 187.79 308.79 177.18C309.07 175.98 307.15 175.37 306.86 176.59C304.58 186.24 302.3 195.9 300.02 205.55C293.84 188.58 287.28 171.74 280.35 155.04C279.88 153.9 278.05 154.8 278.52 155.94C282.5 165.54 286.34 175.19 290.08 184.87C282.18 180.88 274.28 176.9 266.38 172.91C265.24 172.33 264.09 173.95 265.24 174.53C273.55 178.72 281.85 182.92 290.16 187.12C290.44 187.26 290.72 187.26 290.97 187.19C293.78 194.51 296.51 201.86 299.17 209.24C299.16 209.5 299.26 209.72 299.41 209.89C306.19 228.69 312.51 247.64 318.37 266.73C305.94 253.81 291.45 242.81 275.37 234.12C274.25 233.51 273.1 235.13 274.23 235.74C291.15 244.89 306.27 256.57 319.08 270.42C319.24 270.58 319.41 270.68 319.6 270.71C324.66 287.43 329.36 304.25 333.7 321.16L333.7 321.18C333.7 321.37 333.75 321.53 333.83 321.67C335.59 328.5 337.29 335.36 338.93 342.23C343.2 360.17 347.06 378.2 350.52 396.32C350.75 397.53 352.76 397.12 352.53 395.91C347.71 370.75 342.11 345.75 335.74 320.95C335.94 287.8 339.69 254.66 346.95 222.07C347.22 220.85 345.18 220.76 344.91 221.96Z"/>
		<path id="Path 82" class="shppp13" d="M184.4 169.05C176.59 170.74 168.78 172.43 160.97 174.13C170.78 177 199.91 189.08 207.95 194.16C226.28 205.74 240.3 222.91 253.3 240.26C269.79 262.27 285.35 285.43 296.6 310.42L310.42 310.42C312.27 303.77 313.19 296.79 313.05 290.04C312.85 290.04 303.91 288.61 299.86 287.1C303.55 286.44 307.93 282.82 312.13 280.83C309.68 267.1 302.97 254.8 294.34 243.64C288.64 249.15 275.49 250.53 275.49 250.53C283.77 245.11 287.85 237.2 288.16 236.16C283.28 230.62 278.04 225.37 272.75 220.37C266.98 214.9 261.07 209.58 255.04 204.4C251.79 210.38 246.79 212.58 245.97 212.47C248.47 207.7 248.66 203.47 248.57 198.93C239.15 191.09 229.43 183.6 219.46 176.47C217.75 180.46 215.33 184.13 212.32 187.26C214.23 182.28 213.28 177.35 213.65 172.52C209.9 170.18 205.93 168.26 201.61 167.54C200.18 167.3 198.76 167.2 197.32 167.2C193 167.2 188.66 168.12 184.4 169.05Z"/>
		<path id="Path 83" class="shppp14" d="M160.94 174.14C165.61 180.12 169.26 186.9 171.68 194.1C172.77 197.32 173.61 200.66 174.38 204.01C175.7 203.27 177.19 202.76 178.9 202.13C181.03 201.35 192.97 198.55 193.75 197.07C192.14 200.18 190.18 203.21 187.4 205.35C185.6 206.74 183.53 207.71 181.47 208.67C180.18 209.27 178.09 210.35 175.98 211.27C177.85 219.75 179.97 228.08 184.89 235.13C187.08 238.26 189.74 241 192.54 243.62C196.67 242.27 201.19 241.66 205.14 239.5C210.44 236.6 215.19 232.79 219.9 229.04C216.4 242.89 203.54 249.7 201.3 251.59C212.62 262.2 222.84 273.94 232.02 286.45C238.14 286.66 256.33 277.47 256.3 275.92C256.37 279.77 249.92 291.52 238.85 296.17C241.59 300.26 244.23 304.41 246.77 308.62C247.13 309.22 247.49 309.82 247.85 310.42L296.6 310.42C285.35 285.43 269.79 262.27 253.3 240.26C240.3 222.91 226.28 205.74 207.95 194.16C199.91 189.08 170.78 177 160.97 174.13C160.96 174.13 160.95 174.14 160.94 174.14Z"/>
		<path id="Path 85" class="shppp1" d="M307.86 339.35C298.56 306.82 280.99 277.52 261.35 250.25C244.63 227.02 226.41 201.93 199.91 189.28C188.26 183.72 176.23 178.63 164.01 174.49C163.3 174.25 162.96 175.36 163.66 175.6C174.44 179.25 185.02 183.71 195.37 188.43C199.53 190.33 203.76 192.23 207.64 194.65C214.33 198.82 220.47 203.87 226.15 209.31C237.46 220.15 247.02 232.67 256.29 245.25C266.32 258.86 275.87 272.85 284.25 287.54C293.64 304 301.51 321.35 306.73 339.61C306.93 340.32 308.06 340.07 307.86 339.35Z"/>
	</g>
	<g id="Folder 1 copy">
		<path id="Path 81 copy" class="shppp15" d="M302.66 326.31C281.79 308.88 243.37 320.5 216.84 352.25C190.32 384.01 185.73 423.89 206.6 441.32C227.46 458.75 265.89 447.14 292.41 415.38C318.94 383.62 323.53 343.74 302.66 326.31Z"/>
		<path id="Path 59 copy" class="shppp1" d="M308.18 451.46C325.89 460.49 341.22 473.12 347.14 503.32C323.51 483.7 312 460.36 308.65 453.33C311.66 465.38 313.5 477.86 314.13 490.47C318.34 493.75 337.47 511.14 335.73 538.94C324.49 526.46 317.64 511.67 314.32 495.7C314.61 507.91 313.76 520.2 311.79 532.32C315.48 535.53 330.51 550.77 326.23 576.81C317.96 564.91 312.82 550.38 311.25 535.51C309.47 545.45 306.93 555.26 303.67 564.79C310.61 573.67 318.38 580.93 312.43 598.86C301.42 589.45 302.33 573.27 302.92 566.92C301.19 571.79 299.27 576.58 297.17 581.28C297.82 585.07 298.98 607.21 277.68 619.05C278.96 612 280.07 604.89 282.64 598.25C285 592.18 290.12 585.38 295.54 581.59C297.67 576.81 299.62 571.94 301.37 566.99C291.39 578.08 279.85 579.87 273.06 577.72C279.1 563.35 298.5 565.55 301.71 566.02C304.97 556.65 307.51 547 309.32 537.2C302.05 550.14 289.32 557.88 277.1 564.35C283.61 551.04 295.68 540.28 309.56 535.89C312.09 521.68 313.06 507.2 312.44 492.88C307.88 511.78 290.95 529.22 274.15 534.29C279.65 516.12 296.23 503.23 310.08 492.71C310.85 492.43 311.62 492.14 312.39 491.85C311.79 479.43 309.99 467.15 307.06 455.27C304.61 464.71 289.8 500.22 271.2 505.9C271.7 485.1 292.15 466.99 306.75 454.01C304.94 446.88 302.73 439.9 300.11 433.13C300.11 433.13 300.11 433.13 300.11 433.12C299.89 432.54 300.15 431.89 300.69 431.65C301.23 431.42 301.84 431.7 302.06 432.28C304.44 438.52 306.48 444.93 308.18 451.46Z"/>
		<path id="Path 59 copy 2" class="shppp16" d="M58.09 380.83C38.92 377.84 19.33 365.95 0.13 362.56C14.79 339.42 33.14 320.45 54.82 309.28L146.15 309.28C153.85 312.68 160.31 317.9 157.08 329.32C153.6 341.66 145.9 351.19 137.91 357.84C127.49 366.51 115.13 371.24 102.65 375.2C91.66 378.68 80.34 381.63 68.5 381.63C65.07 381.63 61.61 381.38 58.09 380.83Z"/>
		<path id="Path 61 copy" class="shppp1" d="M109.53 337.36C103.38 350.21 97.94 363.76 93.22 377.97C92.31 378.21 91.4 378.45 90.49 378.67C95.08 364.59 100.35 351.14 106.31 338.35C93.13 342.41 79.85 346.16 66.48 349.6C66.38 349.66 66.27 349.7 66.14 349.69C65.93 349.74 65.73 349.8 65.51 349.85C59.72 358.79 54.67 368.58 50.43 379.2C49.65 378.99 48.87 378.78 48.1 378.55C52.01 368.58 56.59 359.31 61.84 350.78C42.82 355.56 23.62 359.72 4.23 363.23C2.99 363.46 2.01 360.69 3.26 360.47C23.48 356.8 43.51 352.44 63.32 347.4C53.9 339.02 44.48 330.65 35.06 322.27C35.64 321.8 36.23 321.33 36.82 320.86C46.52 329.48 56.22 338.1 65.91 346.73C80.06 343.08 94.09 339.1 108.01 334.76C108.07 334.64 108.12 334.52 108.18 334.4C101.24 328.97 94.29 323.53 87.35 318.09C81.64 313.62 75.76 309.51 71.23 302.58C71.91 302.38 72.59 302.17 73.28 301.98C78.26 309.14 85.2 313.5 91.23 318.22C97.86 323.41 104.49 328.61 111.12 333.8C126.46 328.96 141.65 323.69 156.7 318.01C157.11 318.86 157.42 319.79 157.63 320.79C141.76 326.78 125.72 332.3 109.53 337.36Z"/>
		<path id="Path 63 copy" class="shppp17" d="M79 455.22C76.76 463.97 66.26 469.56 57.74 466.56C46.14 462.47 43.06 446.24 48.62 435.26C54.17 424.28 65.32 417.45 75.99 411.32C78.76 409.72 81.64 408.03 83.33 405.32C85.02 402.6 85.02 398.55 82.45 396.64C80.05 394.85 77.09 395.7 74.04 396.56C71.97 397.13 69.87 397.71 67.86 397.47C62.11 396.8 59.34 389.26 61.47 383.87C63.6 378.49 68.83 375.05 73.95 372.35C85.58 366.21 98.24 362.03 111.24 360.05C116.36 359.27 123.12 357.01 122.57 351.85C122.11 347.49 116.46 345.88 112.11 346.46C107.76 347.04 103.12 348.67 99.19 346.73C93.85 344.1 93.39 336.1 96.75 331.19C100.11 326.28 105.89 323.73 111.37 321.42C120.7 317.53 130 313.41 139.3 309.28L203.5 309.28C203.43 309.76 203.37 310.23 203.32 310.69C201.45 326.02 199.58 341.35 197.72 356.67C197.08 361.93 194.08 368.92 188.98 367.49C187.05 366.95 185.63 365.21 183.69 364.71C180.81 363.96 177.88 366.31 176.82 369.09C175.75 371.87 176.04 374.95 176.14 377.93C176.64 392.57 172.26 407.34 163.85 419.33C160.22 424.5 155.58 429.35 149.55 431.26C143.52 433.17 135.95 431.24 133.04 425.62C132 423.62 131.57 421.24 130.01 419.61C127.15 416.63 121.78 417.81 119.08 420.94C116.37 424.06 115.64 428.39 115.09 432.49C114.11 439.78 113.33 447.23 110.27 453.91C107.21 460.59 101.34 466.5 94.05 467.41C93.54 467.47 93.02 467.51 92.51 467.51C85.67 467.51 78.71 462.04 79 455.22Z"/>
		<path id="Path 65 copy" class="shppp4" d="M149.03 391.68C156.32 366.76 166.05 342.62 178.04 319.6C153.97 350.02 128.48 379.31 101.63 407.31C99.41 409.63 97.18 411.93 94.95 414.22C91.51 424.18 89.58 434.5 89.16 445.02C89.12 445.99 87.63 445.81 87.67 444.86C88.06 435.24 89.72 425.8 92.59 416.64C82.62 426.82 72.47 436.83 62.15 446.67C61.45 447.33 60.54 446.15 61.23 445.49C84.23 423.56 106.37 400.73 127.61 377.09C115.09 379.08 102.57 381.06 90.05 383.05C89.1 383.21 88.88 381.72 89.83 381.57C102.92 379.49 116.01 377.41 129.1 375.33C129.13 375.33 129.16 375.33 129.19 375.33C149.66 352.45 169.28 328.81 187.98 304.45C165.41 315.61 142.26 325.55 118.62 334.19C117.71 334.52 117.12 333.15 118.03 332.81C142.59 323.83 166.62 313.47 190.01 301.79C191.34 300.03 192.69 298.29 194.02 296.53C198.94 290.01 203.79 283.44 208.57 276.83L209.76 277.72C201.03 289.77 192.09 301.67 182.93 313.4C182.93 313.5 182.91 313.62 182.84 313.73C169.27 338.67 158.4 364.98 150.43 392.23C150.16 393.15 148.76 392.6 149.03 391.68Z"/>
		<path id="Path 67 copy" class="shppp18" d="M318 401.53L318 446.07C314.71 432.06 314.55 416.97 318 401.53Z"/>
		<path id="Path 68 copy" class="shppp19" d="M234.51 295.51C217.66 274.17 177.67 277.66 145.2 303.31C112.72 328.95 100.05 367.04 116.9 388.38C133.76 409.72 173.74 406.23 206.22 380.58C238.69 354.94 251.36 316.85 234.51 295.51Z"/>
		<path id="Path 69 copy" class="shppp20" d="M306.66 326.31C285.79 308.88 247.37 320.5 220.84 352.25C194.32 384.01 189.73 423.89 210.6 441.32C231.46 458.75 269.89 447.14 296.41 415.38C322.94 383.62 327.53 343.74 306.66 326.31Z"/>
		<path id="Path 70 copy" class="shppp21" d="M155.33 392.42C145.15 391.61 134.96 390.8 125.46 391.92C134.38 360.09 150.15 332.51 174.01 315.44C177.15 313.19 180.44 311.13 183.86 309.28L266.05 309.28C266.49 310.84 266.75 312.62 266.78 314.66C266.99 327.53 262.34 338.91 256.57 347.62C249.06 358.96 238.54 367.08 227.69 374.48C215.36 382.89 202.24 390.59 186.47 392.76C182.72 393.27 178.86 393.47 174.93 393.47C168.52 393.47 161.92 392.95 155.33 392.42Z"/>
		<path id="Path 72 copy" class="shppp9" d="M223.37 336.11C221.17 350.25 219.85 364.85 219.41 379.87C218.61 380.36 217.81 380.85 217 381.33C217.34 366.46 218.53 352.01 220.57 338C209.07 345.7 197.38 353.14 185.51 360.31C185.44 360.4 185.34 360.46 185.22 360.49L184.66 360.83C181.67 371.1 179.64 381.96 178.63 393.4C177.82 393.43 177.01 393.44 176.2 393.45C177.08 382.74 178.81 372.5 181.4 362.78C164.49 372.86 147.22 382.41 129.59 391.39C128.47 391.96 126.72 389.58 127.87 389C146.25 379.64 164.24 369.67 181.84 359.1C170.37 353.77 158.89 348.43 147.42 343.1C147.84 342.47 148.27 341.85 148.71 341.24C160.52 346.73 172.33 352.22 184.14 357.71C196.69 350.13 209.03 342.24 221.16 334.06C221.18 333.92 221.2 333.79 221.22 333.66C212.98 330.44 204.73 327.22 196.49 323.99C189.71 321.34 182.87 319.09 176.51 313.73C177.11 313.33 177.71 312.94 178.31 312.56C185.17 318.01 193.1 320.2 200.25 322.99C208.13 326.07 216 329.15 223.87 332.23C237.23 323.15 250.32 313.7 263.15 303.89C263.79 304.6 264.35 305.4 264.84 306.3C251.31 316.64 237.49 326.58 223.37 336.11Z"/>
		<path id="Path 74 copy" class="shppp22" d="M193.65 429.23C205.57 410.98 224.01 396.73 247.73 389.32C258.24 386.05 272.94 378.96 279.49 395.01C284.33 406.89 284.12 419.13 281.91 429.29C279.03 442.53 272.2 453.87 264.8 464.66C256.39 476.92 246.99 488.81 233.13 496.51C216.17 505.95 193.42 508.62 176.19 517.77C172.98 485 177.66 453.7 193.65 429.23Z"/>
		<path id="Path 76 copy" class="shppp1" d="M246.94 430.6C250 444.52 254.04 458.55 259.06 472.65C258.5 473.4 257.93 474.14 257.35 474.88C252.29 460.96 248.18 447.11 245.02 433.36C237.12 444.67 228.96 455.8 220.53 466.73C220.49 466.85 220.42 466.94 220.32 467.01C220.19 467.18 220.06 467.35 219.92 467.52C220.86 478.14 222.9 488.96 226.08 499.94C225.35 500.26 224.6 500.57 223.85 500.87C220.8 490.6 218.71 480.47 217.6 470.51C205.55 485.98 192.96 501.08 179.84 515.78C179 516.72 176.52 515.14 177.37 514.19C191.06 498.86 204.16 483.1 216.69 466.94C204.11 466.13 191.52 465.32 178.94 464.52C179.11 463.78 179.29 463.05 179.47 462.32C192.42 463.15 205.37 463.98 218.32 464.81C227.23 453.24 235.83 441.47 244.14 429.49C244.12 429.36 244.08 429.23 244.06 429.1C235.24 429.09 226.42 429.07 217.61 429.05C210.35 429.04 203.19 429.42 195.35 426.74C195.76 426.16 196.18 425.58 196.6 425.01C204.93 427.59 213.09 426.75 220.73 426.77C229.16 426.79 237.58 426.8 246 426.82C255.12 413.56 263.86 400.06 272.23 386.32C273.08 386.75 273.89 387.29 274.67 387.95C265.84 402.43 256.6 416.65 246.94 430.6Z"/>
		<path id="Path 77 copy" class="shppp23" d="M260.06 508.84C252.35 505.56 247.84 496.58 250.1 489C251.67 483.75 255.91 479.6 257.83 474.47C259.75 469.33 257.69 461.86 251.91 461.19C248.99 460.84 246.23 462.42 243.3 462.5C236.17 462.72 231.8 453.77 234.26 447.49C236.72 441.2 243.21 437.34 249.39 434.08C255.56 430.82 262.19 427.36 265.3 421.35C268.41 415.34 265.63 406.13 258.55 405.02C256.62 404.71 254.65 405.03 252.7 405.36C250.34 405.75 248.01 406.14 245.76 405.43C241.5 404.09 239.46 399.14 240.15 394.99C240.85 390.85 243.56 387.33 246.2 383.99C260.62 365.7 275.05 347.42 289.47 329.13C292.94 324.73 297.59 317.14 302.85 309.28L318 309.28L318 489.08C316.42 488.75 314.88 488.12 313.44 487.15C308.59 483.9 305.78 477.6 299.99 476.48C294 475.33 288.91 480.72 287.03 486.15C285.16 491.58 285.02 497.65 281.93 502.54C278.88 507.37 272.91 510.2 266.93 510.2C264.58 510.2 262.23 509.77 260.06 508.84Z"/>
		<path id="Path 79 copy" class="shppp12" d="M344.91 397.73C338.19 367.54 334.48 336.88 333.82 306.18C324.53 341.46 313.67 376.33 301.27 410.68C303.78 421.29 306.28 431.9 308.79 442.51C309.07 443.71 307.15 444.32 306.86 443.11C304.58 433.45 302.3 423.8 300.02 414.14C293.84 431.11 287.28 447.95 280.35 464.65C279.88 465.79 278.05 464.89 278.52 463.75C282.5 454.16 286.34 444.51 290.08 434.82C282.18 438.81 274.28 442.8 266.38 446.79C265.24 447.36 264.09 445.75 265.24 445.17C273.55 440.97 281.85 436.77 290.16 432.58C290.44 432.44 290.72 432.43 290.97 432.51C293.78 425.18 296.51 417.83 299.17 410.46C299.16 410.2 299.26 409.97 299.41 409.8C306.19 391 312.51 372.05 318.37 352.96C305.94 365.89 291.45 376.88 275.37 385.58C274.25 386.19 273.1 384.57 274.23 383.95C291.15 374.81 306.27 363.12 319.08 349.28C319.24 349.11 319.41 349.02 319.6 348.98C324.66 332.27 329.36 315.45 333.7 298.54L333.7 298.51C333.7 298.32 333.75 298.16 333.83 298.03C335.59 291.19 337.29 284.34 338.93 277.47C343.2 259.53 347.06 241.49 350.52 223.38C350.75 222.16 352.76 222.57 352.53 223.79C347.71 248.94 342.11 273.94 335.74 298.75C335.94 331.89 339.69 365.03 346.95 397.63C347.22 398.85 345.18 398.94 344.91 397.73Z"/>
		<path id="Path 82 copy" class="shppp24" d="M184.4 450.65C176.59 448.95 168.78 447.26 160.97 445.57C170.78 442.69 199.91 430.61 207.95 425.53C226.28 413.95 240.3 396.78 253.3 379.43C269.79 357.42 285.35 334.26 296.6 309.28L310.42 309.28C312.27 315.93 313.19 322.91 313.05 329.65C312.85 329.66 303.91 331.09 299.86 332.6C303.55 333.26 307.93 336.87 312.13 338.86C309.68 352.6 302.97 364.9 294.34 376.06C288.64 370.55 275.49 369.16 275.49 369.16C283.77 374.59 287.85 382.5 288.16 383.54C283.28 389.07 278.04 394.33 272.75 399.33C266.98 404.79 261.07 410.11 255.04 415.3C251.79 409.32 246.79 407.12 245.97 407.22C248.47 412 248.66 416.23 248.57 420.77C239.15 428.6 229.43 436.1 219.46 443.23C217.75 439.24 215.33 435.56 212.32 432.44C214.23 437.42 213.28 442.35 213.65 447.17C209.9 449.51 205.93 451.44 201.61 452.16C200.18 452.4 198.76 452.5 197.32 452.5C193 452.5 188.66 451.57 184.4 450.65Z"/>
		<path id="Path 83 copy" class="shppp25" d="M160.94 445.56C165.61 439.58 169.26 432.8 171.68 425.6C172.77 422.37 173.61 419.04 174.38 415.69C175.7 416.42 177.19 416.93 178.9 417.56C181.03 418.35 192.97 421.14 193.75 422.62C192.14 419.51 190.18 416.48 187.4 414.34C185.6 412.95 183.53 411.98 181.47 411.03C180.18 410.43 178.09 409.35 175.98 408.42C177.85 399.95 179.97 391.61 184.89 384.57C187.08 381.43 189.74 378.69 192.54 376.08C196.67 377.43 201.19 378.03 205.14 380.19C210.44 383.1 215.19 386.9 219.9 390.66C216.4 376.8 203.54 369.99 201.3 368.1C212.62 357.5 222.84 345.76 232.02 333.24C238.14 333.04 256.33 342.23 256.3 343.78C256.37 339.92 249.92 328.18 238.85 323.52C241.59 319.44 244.23 315.29 246.77 311.08C247.13 310.48 247.49 309.88 247.85 309.28L296.6 309.28C285.35 334.26 269.79 357.42 253.3 379.43C240.3 396.78 226.28 413.95 207.95 425.53C199.91 430.61 170.78 442.69 160.97 445.57C160.96 445.56 160.95 445.56 160.94 445.56Z"/>
		<path id="Path 85 copy" class="shppp1" d="M307.86 280.34C298.56 312.88 280.99 342.18 261.35 369.45C244.63 392.68 226.41 417.77 199.91 430.42C188.26 435.97 176.23 441.06 164.01 445.2C163.3 445.44 162.96 444.34 163.66 444.1C174.44 440.45 185.02 435.99 195.37 431.26C199.53 429.37 203.76 427.47 207.64 425.04C214.33 420.87 220.47 415.83 226.15 410.38C237.46 399.54 247.02 387.03 256.29 374.45C266.32 360.84 275.87 346.85 284.25 332.16C293.64 315.7 301.51 298.34 306.73 280.09C306.93 279.38 308.06 279.63 307.86 280.34Z"/>
	</g>
</svg>