<svg width="177" height="132" viewBox="0 0 177 132" fill="none" xmlns="http://www.w3.org/2000/svg">
<g id="upper-leaves">
<g id="left">
<path id="Path 21" d="M27.1967 -0.430176C24.3567 3.13982 21.7067 6.85983 19.1467 10.6198C10.6667 23.0398 2.9067 36.2598 0.716698 52.1598C-1.9533 71.6098 3.86672 94.0498 1.55672 113.65C33.6367 104.66 61.4267 88.7698 78.6367 64.7198C91.3967 46.8998 98.0667 24.4598 96.4667 -0.430176H27.1967Z" fill="url(#paint0_linear)"/>
<g id="Mask">
<path id="Path 23" d="M57.8068 14.9702C43.5668 17.1902 28.8568 18.5202 13.7168 18.9602C13.2168 19.7702 12.7268 20.5802 12.2468 21.4002C27.2268 21.0502 41.7868 19.8502 55.9068 17.8002C48.1468 29.3902 40.6468 41.1702 33.4268 53.1302C33.3368 53.2002 33.2668 53.3002 33.2468 53.4202C33.1268 53.6102 33.0168 53.8002 32.8968 53.9902C22.5468 57.0002 11.5968 59.0402 0.0768433 60.0602C0.0468433 60.8802 0.0268457 61.6902 0.0168457 62.5102C10.8168 61.6202 21.1368 59.8802 30.9368 57.2702C20.7668 74.3102 11.1468 91.7102 2.0968 109.48C1.5168 110.61 3.91684 112.37 4.50684 111.22C13.9368 92.6902 23.9868 74.5602 34.6368 56.8202L50.7668 91.5202C51.3968 91.0902 52.0168 90.6602 52.6368 90.2202C47.1068 78.3102 41.5768 66.4102 36.0468 54.5102C43.6868 41.8602 51.6368 29.4302 59.8868 17.2002C60.0168 17.1802 60.1468 17.1602 60.2768 17.1402C63.5268 25.4502 66.7768 33.7602 70.0268 42.0602C72.6968 48.9002 74.9668 55.8002 80.3568 62.2002C80.7668 61.6002 81.1568 61.0002 81.5368 60.3902C76.0568 53.4802 73.8468 45.4802 71.0268 38.2802C67.9268 30.3402 64.8268 22.4102 61.7168 14.4702C70.8768 1.01019 80.4068 -12.1798 90.2868 -25.1098C89.5768 -25.7498 88.7668 -26.3198 87.8568 -26.8198C77.4368 -13.1798 67.4168 0.750183 57.8068 14.9702Z" fill="#055E36"/>
</g>
</g>
<g id="right ">
<path id="Path 25" style="mix-blend-mode:multiply" d="M139.447 31.5802C149.617 70.4202 134.937 107.9 106.667 115.31C78.3866 122.71 47.2167 97.2302 37.0567 58.3902C26.8867 19.5602 41.5566 -17.9298 69.8366 -25.3298C98.1166 -32.7398 129.277 -7.25983 139.447 31.5802Z" fill="url(#paint1_radial)"/>
<path id="Path 26" d="M67.6283 0C66.9983 4.71 66.8782 9.32 67.1082 13.66C67.9282 28.96 73.5083 42.86 79.8183 56.25C86.9883 71.46 95.3282 86.44 109.408 97.56C126.648 111.15 151.568 118.27 169.158 131.6C178.668 95.58 179.108 59.79 165.688 29.57C160.918 18.85 154.348 8.87 146.058 0H67.6283Z" fill="url(#paint2_linear)"/>
<g id="Mask_2">
<path id="Path 28" d="M105.667 22.02C99.7267 37.01 92.6668 51.94 84.5068 66.78C85.0068 67.72 85.5167 68.65 86.0267 69.58C94.1867 54.95 101.287 40.23 107.307 25.45C114.077 39.51 121.187 53.41 128.617 67.15C128.637 67.28 128.697 67.4 128.797 67.49C128.917 67.71 129.037 67.93 129.147 68.14C126.187 79.83 121.947 91.54 116.397 103.23C117.167 103.72 117.947 104.19 118.737 104.67C123.997 93.75 128.167 82.82 131.197 71.9C141.867 91.36 153.187 110.49 165.177 129.28C165.947 130.48 168.997 129.17 168.217 127.95C155.717 108.36 143.927 88.39 132.867 68.07C147.067 69.45 161.257 70.82 175.457 72.2C175.397 71.35 175.337 70.5 175.267 69.65C160.657 68.24 146.047 66.82 131.437 65.41C123.577 50.88 116.097 36.17 108.987 21.28C109.037 21.15 109.097 21.01 109.157 20.87L138.697 25.6C146.807 26.9 154.737 28.62 163.967 27.05C163.617 26.32 163.257 25.6 162.887 24.89C153.117 26.26 144.167 23.85 135.617 22.48C126.207 20.98 116.807 19.47 107.397 17.96C99.6167 1.52 92.2968 -15.15 85.4368 -32C84.4068 -31.68 83.4067 -31.23 82.4167 -30.63C89.6567 -12.86 97.4067 4.7 105.667 22.02Z" fill="#10AD55"/>
</g>
</g>
</g>
<defs>
<linearGradient id="paint0_linear" x1="4.0597" y1="94.3138" x2="57.5137" y2="27.6538" gradientUnits="userSpaceOnUse">
<stop stop-color="#00AA65"/>
<stop offset="0.051" stop-color="#00AA65"/>
<stop offset="1" stop-color="#009354"/>
</linearGradient>
<radialGradient id="paint1_radial" cx="0" cy="0" r="1" gradientUnits="userSpaceOnUse" gradientTransform="translate(88.2506 44.9872) scale(46.931)">
<stop stop-color="#005100"/>
<stop offset="0.979" stop-color="white"/>
<stop offset="1" stop-color="white"/>
</radialGradient>
<linearGradient id="paint2_linear" x1="151.675" y1="119.833" x2="103.621" y2="-0.299992" gradientUnits="userSpaceOnUse">
<stop stop-color="#36DD8B"/>
<stop offset="0.979" stop-color="#80ED9C"/>
<stop offset="1" stop-color="#80ED9C"/>
</linearGradient>
</defs>
</svg>
