<?xml version="1.0" encoding="iso-8859-1"?>
<!-- Generator: Adobe Illustrator 17.1.0, SVG Export Plug-In . SVG Version: 6.00 Build 0)  -->
<!DOCTYPE svg PUBLIC "-//W3C//DTD SVG 1.1//EN" "http://www.w3.org/Graphics/SVG/1.1/DTD/svg11.dtd">
<svg version="1.1" id="Capa_1" xmlns="http://www.w3.org/2000/svg" xmlns:xlink="http://www.w3.org/1999/xlink" x="0px" y="0px"
	 viewBox="0 0 393.993 393.993" style="enable-background:new 0 0 393.993 393.993;" xml:space="preserve">
<path id="XMLID_580_" d="M391.995,368.128c-1.708,2.117-4.282,3.347-7.003,3.347H332.7c-2.99,0-5.785-1.485-7.459-3.963
	c-1.673-2.478-2.007-5.625-0.89-8.399l11.023-27.374c1.856-4.611,7.097-6.845,11.711-4.987c4.61,1.857,6.843,7.1,4.986,11.71
	l-6.046,15.012h27.815l-1.073-4.976c-2.624-12.147-13.99-51.783-50.085-51.783h-15.401c-36.1,0-47.461,39.635-50.084,51.783
	l-1.073,4.976h27.816l-6.045-15.012c-1.856-4.611,0.376-9.854,4.987-11.71c4.609-1.856,9.854,0.376,11.71,4.987l11.022,27.374
	c1.117,2.774,0.783,5.921-0.891,8.399c-1.673,2.478-4.468,3.963-7.458,3.963h-52.293c-2.721,0-5.295-1.23-7.003-3.347
	c-1.709-2.117-2.368-4.893-1.794-7.552l3.426-15.875c8.786-40.701,34.72-65.985,67.679-65.985h15.401
	c32.955,0,58.889,25.284,67.679,65.984l3.428,15.875C394.363,363.235,393.704,366.011,391.995,368.128z M162.402,144.873
	c0-20.015,12.805-37.54,31.863-43.609c1.776-0.565,3.685-0.565,5.462,0c19.058,6.07,31.862,23.595,31.862,43.609
	c0,20.012-12.805,37.537-31.861,43.608c-0.889,0.283-1.811,0.425-2.732,0.425c-0.921,0-1.843-0.142-2.732-0.425
	C175.206,182.41,162.402,164.885,162.402,144.873z M180.402,144.873c0,11.159,6.559,21.043,16.594,25.429
	c10.034-4.386,16.594-14.27,16.594-25.429c0-11.161-6.56-21.045-16.594-25.43C186.961,123.828,180.402,133.713,180.402,144.873z
	 M196.995,54.785c4.971,0,9-4.029,9-9V31.518c0-4.971-4.029-9-9-9s-9,4.029-9,9v14.268
	C187.995,50.756,192.025,54.785,196.995,54.785z M280.39,216.336c0-20.013,12.805-37.537,31.862-43.608
	c1.777-0.565,3.686-0.566,5.463,0c19.058,6.071,31.862,23.595,31.862,43.607s-12.804,37.538-31.861,43.61
	c-0.889,0.283-1.811,0.425-2.732,0.425s-1.844-0.142-2.732-0.425C293.194,253.874,280.39,236.349,280.39,216.336z M298.39,216.336
	c0,11.16,6.559,21.044,16.594,25.431c10.034-4.387,16.594-14.271,16.594-25.431c0-11.159-6.56-21.042-16.594-25.428
	C304.949,195.293,298.39,205.177,298.39,216.336z M299.83,82.34c1.417,0.818,2.964,1.207,4.49,1.207
	c3.111,0,6.137-1.614,7.804-4.502l7.133-12.356c2.484-4.305,1.01-9.809-3.296-12.294c-4.307-2.487-9.81-1.009-12.294,3.295
	l-7.133,12.356C294.05,74.35,295.525,79.855,299.83,82.34z M366.449,163.719c1.526,0,3.074-0.389,4.491-1.207l12.354-7.133
	c4.305-2.485,5.779-7.99,3.294-12.294c-2.484-4.303-7.987-5.779-12.294-3.294l-12.354,7.133c-4.305,2.485-5.779,7.99-3.294,12.294
	C360.314,162.105,363.338,163.719,366.449,163.719z M44.414,216.336c0-20.013,12.805-37.538,31.864-43.608
	c1.778-0.565,3.687-0.566,5.463,0c19.058,6.071,31.862,23.595,31.862,43.607s-12.804,37.538-31.861,43.61
	c-0.889,0.283-1.811,0.425-2.732,0.425s-1.843-0.142-2.732-0.425C57.219,253.875,44.414,236.349,44.414,216.336z M62.414,216.336
	c0,11.16,6.56,21.044,16.595,25.431c10.035-4.387,16.594-14.271,16.594-25.431c0-11.159-6.56-21.042-16.594-25.428
	C68.974,195.293,62.414,205.177,62.414,216.336z M81.869,79.045c1.667,2.888,4.692,4.502,7.803,4.502
	c1.526,0,3.074-0.389,4.491-1.207c4.305-2.485,5.78-7.989,3.295-12.294l-7.133-12.356c-2.485-4.304-7.989-5.78-12.294-3.295
	c-4.305,2.485-5.78,7.989-3.295,12.294L81.869,79.045z M10.696,155.38l12.357,7.133c1.417,0.818,2.964,1.207,4.491,1.207
	c3.11,0,6.136-1.615,7.803-4.502c2.485-4.305,1.01-9.809-3.295-12.294l-12.356-7.133c-4.304-2.485-9.809-1.009-12.294,3.295
	C4.917,147.391,6.392,152.895,10.696,155.38z M176.606,260.275c-1.855-4.61-7.098-6.844-11.71-4.987
	c-4.611,1.856-6.844,7.099-4.987,11.71l6.044,15.013h-8.313c-4.971,0-9,4.029-9,9s4.029,9,9,9h21.638
	c2.99,0,5.785-1.485,7.458-3.963c1.673-2.478,2.007-5.625,0.89-8.398L176.606,260.275z M154.386,344.701
	c-8.789-40.701-34.722-65.984-67.679-65.984H71.31c-32.961,0-58.895,25.284-67.68,65.985l-3.427,15.875
	c-0.574,2.659,0.085,5.435,1.794,7.552S6.28,371.475,9,371.475h52.291c2.99,0,5.785-1.485,7.458-3.963
	c1.673-2.478,2.007-5.625,0.89-8.399l-11.022-27.374c-1.856-4.611-7.1-6.843-11.71-4.987c-4.611,1.856-6.843,7.1-4.987,11.71
	l6.045,15.012H20.15l1.074-4.976c2.622-12.147,13.983-51.783,50.085-51.783h15.398c36.097,0,47.461,39.636,50.084,51.783
	l1.074,4.976h-27.814l6.046-15.012c1.856-4.61-0.376-9.854-4.987-11.71c-4.609-1.857-9.854,0.376-11.71,4.986l-11.024,27.375
	c-1.117,2.773-0.783,5.921,0.89,8.399s4.468,3.963,7.458,3.963h52.291c2.72,0,5.294-1.23,7.003-3.347
	c1.709-2.117,2.369-4.893,1.794-7.552L154.386,344.701z M251.856,266.311c1.571,4.716,6.662,7.267,11.384,5.694
	c4.716-1.571,7.265-6.667,5.694-11.383c-11.299-33.918-34.713-53.372-64.238-53.372h-15.399c-29.532,0-52.947,19.454-64.242,53.373
	c-1.57,4.716,0.979,9.812,5.696,11.382c0.943,0.314,1.902,0.463,2.845,0.463c3.769,0,7.281-2.387,8.538-6.159
	c5.106-15.334,18.024-41.059,47.164-41.059h15.399C233.828,225.251,246.748,250.977,251.856,266.311z M248.43,291.01
	c0-4.971-4.029-9-9-9h-11.391l6.045-15.012c1.856-4.611-0.376-9.854-4.987-11.71c-4.609-1.857-9.854,0.376-11.71,4.987
	l-11.022,27.374c-1.117,2.774-0.783,5.921,0.891,8.399c1.673,2.478,4.468,3.963,7.458,3.963h24.717
	C244.401,300.01,248.43,295.981,248.43,291.01z"/>
<g>
</g>
<g>
</g>
<g>
</g>
<g>
</g>
<g>
</g>
<g>
</g>
<g>
</g>
<g>
</g>
<g>
</g>
<g>
</g>
<g>
</g>
<g>
</g>
<g>
</g>
<g>
</g>
<g>
</g>
</svg>
