<?xml version="1.0" encoding="iso-8859-1"?>
<!-- Generator: Adobe Illustrator 17.1.0, SVG Export Plug-In . SVG Version: 6.00 Build 0)  -->
<!DOCTYPE svg PUBLIC "-//W3C//DTD SVG 1.1//EN" "http://www.w3.org/Graphics/SVG/1.1/DTD/svg11.dtd">
<svg version="1.1" id="Capa_1" xmlns="http://www.w3.org/2000/svg" xmlns:xlink="http://www.w3.org/1999/xlink" x="0px" y="0px"
	 viewBox="0 0 406.914 406.914" style="enable-background:new 0 0 406.914 406.914;" xml:space="preserve">
<path id="XMLID_1052_" d="M131.971,105.039c0-37.634,24.983-70.773,62.852-84.336V9c0-4.97,4.029-9,9-9s9,4.03,9,9v18.252
	c0,4.011-2.654,7.538-6.509,8.648c-33.7,9.707-56.343,37.492-56.343,69.139c0,30.861,21.531,58.049,53.852,68.381
	c32.321-10.332,53.854-37.52,53.854-68.381c0-23.012-11.825-44.168-32.444-58.044c-4.124-2.775-5.217-8.368-2.442-12.491
	c2.775-4.124,8.368-5.217,12.492-2.442c25.293,17.022,40.394,44.304,40.394,72.977c0,37.635-24.984,70.774-62.854,84.335
	l-0.001,168.122h11.03c4.971,0,9,4.029,9,9s-4.029,9-9,9h-20.03c-2.387,0-4.676-0.948-6.364-2.636
	c-1.688-1.688-2.636-3.977-2.636-6.364l0.001-177.122C156.954,175.813,131.971,142.674,131.971,105.039z M119.408,299.739
	l39.187,26.84v12.599c0,4.971,4.029,9,9,9s9-4.029,9-9v-17.343c0-2.969-1.464-5.748-3.914-7.425l-34.246-23.456l42.294-43.113
	c3.481-3.548,3.426-9.247-0.122-12.728c-3.548-3.48-9.246-3.426-12.728,0.122l-49.811,50.776c-1.864,1.9-2.791,4.527-2.533,7.176
	S117.212,298.235,119.408,299.739z M298.832,388.914h-190.75c-4.971,0-9,4.029-9,9s4.029,9,9,9h190.75c4.971,0,9-4.029,9-9
	S303.803,388.914,298.832,388.914z M206.554,72.496c18.262,5.816,30.531,22.609,30.531,41.786c0,19.173-12.269,35.966-30.529,41.787
	c-0.889,0.284-1.811,0.425-2.733,0.425s-1.844-0.142-2.733-0.425c-18.26-5.821-30.528-22.614-30.528-41.787
	c0-19.177,12.269-35.97,30.53-41.786C202.869,71.93,204.777,71.93,206.554,72.496z M203.823,90.688
	c-9.237,4.124-15.262,13.273-15.262,23.594c0,10.319,6.025,19.468,15.262,23.595c9.237-4.127,15.263-13.276,15.263-23.595
	C219.085,103.961,213.06,94.812,203.823,90.688z"/>
<g>
</g>
<g>
</g>
<g>
</g>
<g>
</g>
<g>
</g>
<g>
</g>
<g>
</g>
<g>
</g>
<g>
</g>
<g>
</g>
<g>
</g>
<g>
</g>
<g>
</g>
<g>
</g>
<g>
</g>
</svg>
